<svg xmlns="http://www.w3.org/2000/svg" width="234" height="265" viewBox="0 0 234 265"><g><g><path fill="#fff" d="M133.178 8.695H99.143a23.615 23.615 0 0 1 17.018-7.212 23.61 23.61 0 0 1 17.017 7.212zm1.327 1.489l.007-.006h9.265c3.714 0 6.737 3.029 6.737 6.75 0 3.723-3.023 6.751-6.737 6.751H88.588c-3.714 0-6.736-3.028-6.736-6.75s3.022-6.75 6.736-6.75l45.911-.001zm65.154 22.039v4.736H32.715v-4.737c3.42-.202 7.068-1.779 9.895-4.304 3.153-2.818 4.974-6.456 5.181-10.313h32.611c.345 4.227 3.886 7.561 8.19 7.561h55.191c4.305 0 7.847-3.334 8.191-7.561h32.61c.437 8.143 8.012 14.216 15.075 14.618zM55.47 57.326c0 1.49-.525 2.324-1.067 2.723-.326.236-.56.31-1.284.31-.452 0-.995-.055-1.375-.183-.126-.054-.162-.127-.162-.326V54.33c0-.144.036-.217.162-.253.145-.044.382-.064.703-.07l.256-.003c1.067 0 2.767.744 2.767 3.322zm145.506 0c0 1.49-.524 2.324-1.067 2.723-.326.236-.56.31-1.284.31-.452 0-.995-.055-1.375-.183-.126-.054-.162-.127-.162-.326V54.33c0-.144.036-.217.162-.253.145-.044.382-.064.703-.07l.256-.003c1.067 0 2.767.744 2.767 3.322zm-40.423-1.509c.777.743 1.735 2.23 1.735 4.531 0 1.867-.36 3.516-1.519 4.512-1.084.943-2.314 1.305-4.159 1.305-1.43 0-2.134-.38-2.37-.725-.115-.16-.161-.655-.185-1.079l-.017-.378c-.013-.339-.025-1.19-.03-2.366l-.002-4.71c.001-.913.004-1.759.014-2.247l.006-.228c.011-.157.07-.236.215-.3.125-.063.644-.112 1.016-.124l.16-.003c1.41 0 3.471.218 5.136 1.812zm23.23 4.531c0 5.103-2.778 5.819-4.09 5.852l-.101.001c-3.469 0-5.546-2.99-5.546-6.76 0-4.379 2.23-5.6 4.26-5.668l.184-.003c2.963 0 5.293 2.518 5.293 6.578zm-76.413-7.231c-.1.03-.213.044-.351.053l-.392.02c-.109.004-.442.008-.887.01l-3.893.007c-.112 0-.257-.003-.425-.009l-.715-.027c-.471 0-.996-.018-1.467-.018-.271 0-.416.037-.416.181 0 .109.127.145.308.145.254 0 .561.018.706.054.597.127.742.417.778 1.032.02.322.03.622.033 1.297l.003 6.39c-.001 1.423-.011 2.536-.09 3.197-.072.526-.163.924-.525.996-.163.036-.38.073-.651.073l-.062.002c-.153.01-.21.062-.21.143 0 .145.126.181.38.181.688 0 1.828-.054 2.3-.054h.151c.451.008 1.255.04 2.113.05l.487.004c.272 0 .399-.054.399-.181 0-.091-.073-.145-.308-.145l-.138-.003a8.355 8.355 0 0 1-.768-.07c-.543-.072-.651-.47-.706-.996l-.021-.212c-.05-.562-.064-1.371-.068-2.366l-.001-2.746c0-.126.036-.163.127-.163.307 0 2.226 0 2.68.055.56.072.832.398.922.652.073.217.11.434.11.561v.042c.008.111.047.211.144.211.15 0 .176-.125.18-.262v-.082c0-.11.029-.762.06-1.166l.025-.267c.054-.509.134-.91.134-1.011 0-.11-.037-.164-.11-.164-.077 0-.118.037-.167.098l-.068.083c-.18.236-.434.308-.778.327a7.567 7.567 0 0 1-.468.017l-.347.001-2.317.018c-.109 0-.127-.055-.127-.163v-4.528c0-.198.054-.253.163-.253l2.788.055c.688.017 1.068.289 1.195.543.084.197.103.416.107.572l.001.116c.019.199.055.29.182.29.126 0 .163-.11.18-.254l.008-.05c.027-.238.053-.893.071-1.233l.012-.184c.055-.47.145-.688.145-.815 0-.09-.055-.163-.127-.163-.09 0-.18.073-.29.109zm-59.351.036l-.07.001c-.224.006-.328.047-.328.162 0 .127.108.164.307.164.254 0 .56.018.706.054.597.126.74.416.777 1.033.02.322.03.622.033 1.297l.003 6.374c-.001 1.39-.011 2.558-.09 3.22-.073.526-.163.925-.524.997-.163.036-.38.073-.651.073l-.061.001c-.17.01-.229.062-.229.144 0 .126.127.18.362.18.723 0 1.863-.054 2.206-.054h.036c.284.004 1.23.04 2.123.051l.5.004c.235 0 .362-.055.362-.181 0-.09-.073-.145-.218-.145l-.089-.002a8.45 8.45 0 0 1-.574-.044l-.223-.027c-.543-.072-.65-.471-.705-.996l-.022-.214c-.049-.57-.063-1.41-.067-2.405l-.001-1.514c0-.108.053-.144.144-.144l1.627.037a.347.347 0 0 1 .272.126c.218.252.947 1.327 1.628 2.276l.287.396c.946 1.294 1.608 2.093 2.353 2.492.47.254.923.345 1.935.345h1.718c.217 0 .344-.036.344-.181 0-.09-.073-.145-.217-.145l-.09-.002a3.215 3.215 0 0 1-.416-.053c-.272-.054-1.013-.18-2.026-1.232-.711-.749-1.503-1.716-2.429-2.878l-1.495-1.888c1.826-1.486 2.387-2.719 2.387-4.06 0-1.214-.723-2.138-1.23-2.482-.977-.671-2.189-.78-3.328-.78h-.114c-.492.005-1.387.037-2.02.05l-.416.004c-.38 0-1.519-.054-2.477-.054zm27.743.05l-.297.005c-.524 0-1.102-.055-1.699-.055-.217 0-.307.037-.307.163 0 .085.098.126.219.157l.106.025c.307.072.38.271.38.452 0 .236-.073.544-.253.943-.242.536-2.327 4.194-2.674 4.903l-.037.08c-.276-.484-2.599-4.494-3.025-5.323l-.093-.188c-.102-.214-.171-.396-.171-.523 0-.145.09-.29.253-.326.27-.073.398-.09.398-.2 0-.108-.091-.163-.272-.163-.705 0-1.355.041-1.763.052l-.17.003c-.507 0-1.562-.04-2.067-.052l-.21-.003c-.217 0-.344.055-.344.163 0 .127.127.163.271.163l.086.005c.207.023.468.12.673.23.343.2.796.654 1.248 1.324l.04.061c.69 1.042 3.016 4.874 3.14 5.158l.112.256c.178.419.304.832.304 1.647v1.486c0 .29 0 1.051-.054 1.812-.037.526-.2.925-.56.997a2.91 2.91 0 0 1-.634.073l-.062.002c-.155.01-.226.062-.226.143 0 .145.144.181.397.181.669 0 1.807-.054 2.259-.054h.078c.469.004 1.384.044 2.346.052l.341.002c.235 0 .38-.054.38-.181 0-.091-.09-.145-.29-.145l-.137-.003a8.315 8.315 0 0 1-.766-.07c-.542-.072-.705-.471-.741-.997a24.829 24.829 0 0 1-.054-1.602V62.01c.002-.543.022-1.065.27-1.663.326-.78 2.856-5.038 3.452-5.763l.171-.208c.292-.348.484-.527.806-.68l.092-.046c.253-.114.542-.172.702-.172l.058-.001c.17-.01.286-.065.286-.18 0-.108-.127-.145-.325-.145-.28 0-1.119.036-1.637.05zm42.18.005h-.114c-.481-.006-1.31-.042-1.941-.052l-.297-.003c-.29 0-.434.036-.434.145 0 .145.109.181.29.181l.131.003c.178.006.36.027.52.07.397.09.578.399.614 1.015l.003.045c.017.288.026.574.03 1.145l.003 6.274c0 1.56-.007 2.82-.09 3.518l-.01.096c-.059.467-.175.742-.514.81-.163.036-.38.073-.651.073l-.061.002c-.17.01-.229.061-.229.143 0 .127.127.181.362.181.638 0 1.6-.042 2.104-.052l.175-.002c.418 0 1.315.04 2.314.051l.507.003c.199 0 .343-.054.343-.181 0-.091-.09-.145-.289-.145l-.123-.002a8.171 8.171 0 0 1-.8-.07c-.542-.073-.668-.4-.722-.889-.051-.547-.066-1.415-.07-2.491l-.002-6.196c0-1.247.006-1.725.025-2.12l.017-.29c.046-.569.2-.85.663-.936.216-.036.362-.055.542-.055h.052c.15-.008.237-.05.237-.18 0-.11-.144-.146-.38-.146-.687 0-1.754.055-2.206.055zm75.583-.055l-.07.001c-.223.006-.328.047-.328.162 0 .127.109.164.308.164.253 0 .56.018.705.054.596.126.741.416.778 1.033.02.336.03.647.033 1.386l.002 6.502c-.002 1.294-.015 2.376-.09 3.004-.072.525-.162.924-.524.996-.163.036-.38.073-.651.073l-.06.001c-.17.01-.23.062-.23.144 0 .126.127.18.362.18.724 0 1.863-.054 2.207-.054h.036c.283.004 1.23.04 2.122.051l.5.004c.235 0 .362-.055.362-.181 0-.09-.072-.145-.217-.145l-.09-.002a8.448 8.448 0 0 1-.574-.044l-.223-.027c-.542-.072-.65-.471-.705-.996l-.021-.214c-.05-.57-.064-1.41-.068-2.405l-.001-1.514c0-.108.054-.144.145-.144l1.626.037a.346.346 0 0 1 .272.126c.183.211.727 1.004 1.3 1.815l.49.686c1.013 1.395 1.7 2.247 2.479 2.663.47.254.922.345 1.934.345h1.719c.217 0 .343-.036.343-.181 0-.09-.072-.145-.217-.145l-.089-.002a3.22 3.22 0 0 1-.417-.053c-.271-.054-1.013-.18-2.026-1.232-.666-.702-1.404-1.596-2.256-2.662l-1.668-2.104c1.827-1.486 2.387-2.719 2.387-4.06 0-1.214-.723-2.138-1.23-2.482-.976-.671-2.188-.78-3.327-.78h-.115c-.492.005-1.386.037-2.02.05l-.415.004c-.38 0-1.52-.054-2.478-.054zm-102.262-.036c-.1.03-.212.044-.35.053l-.391.02c-.11.004-.443.008-.887.01l-3.888.007c-.112 0-.257-.003-.424-.009l-.715-.027c-.47 0-.995-.018-1.465-.018-.271 0-.416.037-.416.181 0 .109.127.145.307.145.254 0 .56.018.706.054.597.127.741.417.777 1.032.02.319.03.615.033 1.273l.003 6.415c0 1.28-.01 2.31-.068 2.984l-.022.212c-.072.526-.163.924-.524.996-.163.036-.38.073-.651.073l-.062.002c-.153.01-.21.062-.21.143 0 .145.127.181.38.181.687 0 1.827-.054 2.297-.054l.152.001c.45.007 1.253.04 2.11.05l.487.003c.271 0 .398-.054.398-.181 0-.091-.073-.145-.308-.145l-.137-.003a8.327 8.327 0 0 1-.767-.07c-.542-.072-.65-.47-.705-.996l-.012-.108c-.06-.597-.074-1.508-.078-2.65v-2.566c0-.126.035-.163.126-.163.307 0 2.224 0 2.677.055.56.072.831.398.922.652.072.217.108.434.108.561l.002.042c.007.111.046.211.143.211.15 0 .175-.125.18-.262l.002-.16c.006-.196.027-.656.05-.998l.021-.246c.054-.561.145-1.014.145-1.122 0-.11-.036-.164-.109-.164-.078 0-.118.037-.168.098l-.118.144c-.177.188-.414.25-.726.266a7.568 7.568 0 0 1-.468.017l-.346.001-2.315.018c-.108 0-.127-.055-.127-.163v-4.528c0-.198.054-.253.163-.253l2.785.055c.687.017 1.067.289 1.194.543.084.197.103.416.107.572l.001.116c.018.199.055.29.181.29.127 0 .163-.11.181-.254l.007-.05c.029-.258.058-1.005.076-1.31l.007-.107c.055-.47.145-.688.145-.815 0-.09-.054-.163-.127-.163-.09 0-.18.073-.289.109zM208.188 66.18v.184h.019a.195.195 0 0 1 .055-.116c.02-.02.054-.029.1-.029h.049v.525a.238.238 0 0 1-.005.063.049.049 0 0 1-.021.024.093.093 0 0 1-.047.01h-.023v.019h.355v-.019h-.023a.09.09 0 0 1-.045-.01.055.055 0 0 1-.023-.022.068.068 0 0 1-.003-.013l-.002-.052v-.525l.079.001c.016.001.029.004.037.008.023.011.04.026.054.045a.307.307 0 0 1 .036.091h.018v-.184zm.667 0v.019h.022c.019 0 .034.003.045.01.011.006.02.013.023.022.003.008.005.03.005.064v.482a.104.104 0 0 1-.016.036.065.065 0 0 1-.03.021.098.098 0 0 1-.042.007h-.007v.019h.232v-.019a.124.124 0 0 1-.069-.015.071.071 0 0 1-.027-.041.413.413 0 0 1-.003-.062v-.478l.265.615h.012l.26-.62v.504a.227.227 0 0 1-.005.063.05.05 0 0 1-.02.024.094.094 0 0 1-.049.01h-.022v.019h.354v-.019h-.04a.067.067 0 0 1-.027-.01.046.046 0 0 1-.023-.022.055.055 0 0 1-.003-.013l-.002-.052v-.449c0-.033.002-.054.005-.062a.047.047 0 0 1 .02-.024.091.091 0 0 1 .048-.01h.022v-.019h-.276l-.184.448-.19-.448zm-52.523-13.025l-.808-.001c-.847.004-1.705.038-2.278.05l-.325.004c-.507 0-1.646-.055-2.605-.055l-.07.001c-.223.006-.328.047-.328.162 0 .127.109.164.308.164.253 0 .56.018.705.054.597.127.742.417.778 1.034.02.318.029.615.033 1.274l.003 5.979c0 1.575-.004 2.918-.09 3.647-.072.525-.163.924-.525.997-.162.036-.38.072-.65.072l-.062.002c-.17.01-.229.062-.229.144 0 .126.127.18.362.18.362 0 .832-.035 1.248-.035.217-.01.425-.014.604-.016l.427-.003c.271 0 .608.02.982.047l.79.062c.688.055 1.43.109 2.08.109 3.197 0 5.056-1.176 5.942-2.024l.117-.116c1.012-1.033 1.97-2.775 1.97-5.06 0-2.158-.85-3.663-1.753-4.606-1.794-1.882-4.457-2.051-6.626-2.066zm-26.851.36l-.17 11.104c-.03 1.246-.129 1.687-.554 1.818-.253.072-.579.09-.814.09l-.057.002c-.146.008-.232.047-.232.144 0 .163.163.18.398.18.855 0 1.635-.044 1.892-.052l.116-.001c.322.004.918.044 1.83.052l.358.002c.253 0 .415-.036.415-.181 0-.11-.108-.145-.307-.145l-.127-.002a2.66 2.66 0 0 1-.814-.125c-.336-.118-.563-.535-.622-1.733l-.01-.279-.2-7.557h.055c.312.33 2.165 2.37 4.053 4.262l.609.606c1.627 1.623 3.492 3.527 4.627 4.635l.472.456c.164.153.334.28.493.28.163 0 .235-.163.235-.562l.2-11.435c.018-1.015.162-1.395.669-1.54.216-.054.361-.054.542-.054.217 0 .325-.055.325-.164 0-.145-.18-.163-.415-.163h-.138a24.95 24.95 0 0 0-.746.017l-.89.037c-.334 0-1.05-.042-1.859-.052l-.394-.002c-.237.004-.404.03-.404.163 0 .11.072.164.289.164.253 0 .687 0 .958.108.435.181.597.526.616 1.631l.18 8.137h-.09c-.308-.29-2.749-2.9-3.979-4.132l-.672-.672a295.707 295.707 0 0 1-4.754-4.9l-.48-.519c-.138-.144-.247-.233-.37-.233-.18 0-.234.253-.234.616zm-99.73.562c-1.646.997-3.147 3.027-3.147 5.926 0 5.002 3.925 7.105 8.356 7.105 1.41 0 3.183-.2 4.358-.816.19-.11.228-.152.234-.489l.001-2.38c0-.657.001-1.212.01-1.665l.008-.287c.018-.634.2-.942.688-1.032.216-.037.343-.055.488-.055l.046-.002c.106-.008.189-.048.189-.143 0-.145-.127-.181-.362-.181-.596 0-1.555.054-2.116.054-.479 0-1.422-.042-2.283-.052l-.339-.002c-.253 0-.38.036-.38.181 0 .109.109.145.272.145l.196.004c.2.006.4.023.509.05.596.127.76.417.777 1.033l.005.143c.007.292.01.623.012 1.004l.002 2.695c0 .308-.073.544-.344.671-.355.163-.844.193-1.267.198l-.27.002c-3.817 0-6.294-2.919-6.294-6.815 0-2.23.651-3.588 1.664-4.44 1.175-.976 2.398-1.108 3.363-1.122l.218-.001c2.043 0 3.49.833 4.033 1.414.407.44.53.933.59 1.329l.031.22c.02.119.062.19.175.19.144 0 .199-.09.199-.38l.002-.481c.016-1.86.124-2.307.124-2.491l-.001-.037c-.008-.105-.057-.165-.252-.181a10.023 10.023 0 0 1-1.143-.147l-.382-.07a22.945 22.945 0 0 0-2.833-.27l-.272-.003c-1.52 0-3.129.127-4.865 1.178zm141.799 5.927c0 3.207 2.098 7.104 7.288 7.104 4.593 0 7.487-3.28 7.487-7.43 0-4.151-2.803-6.779-7.306-6.779-5.425 0-7.47 4.005-7.47 7.105zm43.76-16.783c0 4.569 2.53 8.845 7.122 12.04l4.787 3.33-4.787 3.332c-4.592 3.194-7.122 7.47-7.122 12.038v2.73H18.69v-2.73c0-4.568-2.53-8.844-7.123-12.04l-4.786-3.33 4.786-3.33c4.593-3.195 7.123-7.47 7.123-12.04v-2.73h196.62zm-198.1-4.213v4.212c0 4.068-2.304 7.91-6.488 10.818l-6.536 4.549 6.537 4.547c4.183 2.909 6.486 6.752 6.486 10.818v4.213h199.582v-4.213c0-4.067 2.303-7.909 6.485-10.817l6.539-4.548-6.539-4.549c-4.182-2.908-6.485-6.75-6.485-10.818v-4.212zm201.051 4.213c0 3.96 2.28 7.819 6.255 10.584l6.879 4.787-6.879 4.785c-3.975 2.766-6.255 6.624-6.255 10.584v4.79H15.728v-4.79c0-3.96-2.28-7.818-6.255-10.584l-6.878-4.785 6.877-4.787c3.976-2.766 6.256-6.623 6.256-10.584v-4.789h202.533zM98.082 90.37c-14.608 2.642-29.265 4.743-38.859-1.91.834 4.86 3.662 17.027 11.9 25.193-5.004-7.32-4.19-16.401-4.003-17.977l.031-.238c7.765 11.25 26.963 1.512 51.716-1.586 22.909-2.872 20.395 9.91 20.01 11.454l-.04.151c3.311-3.005.587-9.573.009-10.856l-.102-.22c10.46 7.296 9.5 15.799 8 20.217l-.092.265a20.087 20.087 0 0 1 2.136 1.77l.22.217c1.358-3.379 2.575-8.123 1.627-13.049-1.013-5.267-4.302-9.772-9.774-13.393-8.68-5.743-22.544-3.712-36.365-1.21zm59.02 46.915l-5.07 2.084.02.183c.077.6.267 1.124.525 1.584.763.835 1.865 1.85 3.23 2.603l.126.047.299.104c.108.047.2.117.279.198.953.427 2.008.708 3.153.703l-8.692 4.831.182-.392c.536-1.206 1.934-4.803-.288-5.13l-3.135 1.429-17.465-9.631 7.115-.564zm53.676 30.61l-9.74 9.757V80.234h9.74zm-177.819 9.978L23 167.894v-87.66h9.96zm89.84-56.583c11.739-2.386 21.868 3.866 23.413 4.881l.204.137c-4.878-2.493-9.306-2.995-13.262-2.237l-.031.027c-.137.073-13.617 7.568-12.95 17.528.547 8.149 10.361 12.24 13.699 13.4l.382.13 31.813 1.39-.384.096c-2.503.642-16.375 4.419-15.712 9.134l10.955 11.664.193.08c6.041 2.379 16.058-5.457 18.402-7.396l.355-.297 2.2-5.098-.04-.065a.84.84 0 0 1-.126-.445c.106-3.819-6.193-7.934-8.885-9.343l-.2-.103a.877.877 0 0 1-.449-1.007.845.845 0 0 1 .883-.652l10.772.482-20.075-12.307-.072-.05a.88.88 0 0 1-.342-.583c-.918-6.853-12.232-14.398-16.532-17.035l-.5-.304c-9.4-5.015-16.984-4.692-22.598-2.657-.368.203-.738.41-1.113.63zm46.83 57.057c-2.113 3.676-6.609 13.364 2.418 16.594-.395-4.99 3.628-15.564 5.799-20.838l.272-.657c-2.167 1.586-5.25 3.593-8.49 4.901zM49.25 134.195c3.375 56.202 30.264 68.667 32.41 69.574l.135.055c-27.253-19.797-29.782-61.654-29.988-66.606l-.017-.481c-1.793-7.646-1.983-15.353-2-17.494v-.582c5.234 18.034 35.938 11.663 55.021 2.58l.472-.223c15.177-7.127 21.698-5.523 23.584-4.693l.11.05a50.715 50.715 0 0 1 3.102-1.099l.347-.108a14.772 14.772 0 0 0-2.69-1.207c-4.962-1.102-10.2-1.05-15.212-.38-5.44 1.066-12.18 3.35-20.422 7.664l-.493.256c-15.882 8.153-26.839 6.214-33.349 2.999l-.397-.2c-5.973-3.08-9.98-8.075-11.966-12.631-.321 5.232-.46 14.172 1.353 22.526zm66.08 58.627c3.6 5.062 14.814 16.014 25.508 26.039l1.683 1.574c-.612-3.853-3.844-16.977-20.512-34.205l-.281-.293c-8.223-8.643-12.845-19.855-13.486-30.465-.292 9.806.736 24.048 7.088 37.35zm11.25-19.514l.568.92c18.166 29.576 16.758 42.89 15.844 46.39l-.056.204c2.536 2.364 5.01 4.65 7.312 6.762l1.927 1.766c1.743-25.655-15.123-52.185-25.3-61.204l-.307-.274c-2.833-2.557-4.9-5.086-6.408-7.442 1.436 3.93 3.523 8.21 6.42 12.878zm62.083 59.493v1.483h4.124v-1.483zm-147.438 0v1.483h4.114v-1.483zm131.092 6.375v1.484h4.114v-1.484zm-114.745 0v1.484h4.124v-1.484zm102.45 6.377v1.494h4.123v-1.494zm-90.155 0v1.494h4.115v-1.494zm81.027 6.377v1.484h4.123v-1.484zm-71.899 0v1.484h4.113v-1.484zm7.187 6.377v1.483h4.124v-1.483zm57.525 0v1.483h4.114v-1.483zm55.85-32.711c-11.325.1-22.952 2.52-34.715 7.213h-.324v.13a127.696 127.696 0 0 0-13.033 6.146c-12.201 6.593-22.251 14.38-28.952 19.776l-4.045 3.274-.77.619-.72.572c-.662-.524-1.39-1.114-2.183-1.763l-3.098-2.537c-14.27-11.655-41.864-33.134-77.278-33.43V80.234h165.118zM97.136 8.695h-8.547c-4.258 0-7.77 3.264-8.177 7.427h-33.34a.74.74 0 0 0-.74.74c0 6.558-6.14 13.891-14.356 13.891a.74.74 0 0 0-.74.742v5.454H14.249v6.272c0 3.518-1.996 6.845-5.62 9.365L0 58.592l8.629 6.004c3.624 2.52 5.62 5.847 5.62 9.365v6.274h7.27v88.273l11.4 11.423.04-.041v46.436c0 .41.332.742.74.742 11.46 0 22.112 2.27 31.758 5.732H48.325v1.484h21.03a120.924 120.924 0 0 1 10.612 4.892H64.672v1.484h17.67l.002-.218a144.802 144.802 0 0 1 8.623 5.111h-14v1.484h15.927v-.233a176.45 176.45 0 0 1 7.344 5.126H86.094v1.484h15.927v-.157a240.667 240.667 0 0 1 5.62 4.368l.851.682H93.281v1.483h16.974v-.054l.39.318 2.979 2.44c.908.742 1.735 1.414 2.482 2.005l.44.344a.737.737 0 0 0 .908 0c.625-.487 1.312-1.036 2.064-1.644l2.686-2.176 1.545-1.248v.015h16.974v-1.483h-15.14a255.66 255.66 0 0 1 6.4-4.935v.042h15.928v-1.484h-13.969a183.532 183.532 0 0 1 7.168-4.961v.068h15.927v-1.484h-13.733a149.821 149.821 0 0 1 8.357-4.936v.043h17.672v-1.484h-14.965c3.38-1.751 6.924-3.404 10.62-4.892h20.69v-1.483h-16.805c9.622-3.466 20.175-5.733 31.426-5.733.409 0 .74-.332.74-.742v-46.577l11.22-11.24V80.233h7.492v-6.273c0-3.518 1.995-6.844 5.619-9.365l8.63-6.004-8.63-6.006c-3.624-2.52-5.619-5.846-5.619-9.365v-6.272H201.13v-5.454a.74.74 0 0 0-.74-.742c-8.216 0-14.355-7.333-14.355-13.89a.741.741 0 0 0-.74-.742h-33.338c-.407-4.163-3.92-7.426-8.18-7.426h-8.589A25.098 25.098 0 0 0 116.161 0a25.1 25.1 0 0 0-19.026 8.695z"/></g></g></svg>