<svg xmlns="http://www.w3.org/2000/svg" width="231.875" height="265" viewBox="0 0 231.875 265">
  <path id="Crest" d="M115.852,265v0h0l-.35-.192L26.713,215.58V107.056L0,79.956,27.023,52.543h-.416V30.826l.78.054c.012,0,1.207.081,3.219.081a78.648,78.648,0,0,0,15.936-1.607c9.179-1.942,21.133-6.623,25.955-17.9l.143-.334L116.081,0l43.443,11.125.143.334c4.825,11.282,16.794,15.962,25.986,17.9a78.638,78.638,0,0,0,15.9,1.6c2.007,0,3.216-.081,3.227-.082l.781-.054V52.331h-.913l27.23,27.625L204.9,107.323V215.58l-.38.211ZM28.175,108.539V214.7l87.677,48.608L203.438,214.7v-105.9l-9.576,9.715-5.379-5.454a31.375,31.375,0,0,0-2.918-2.614v109.7l-69.721,38.694-.35-.194-69.447-38.5V110.663a31.417,31.417,0,0,0-2.654,2.4l-5.379,5.454Zm88.4,66.579v81.634l67.53-37.477V109.37a29.943,29.943,0,0,0-10.533-4.652v46.367a10.72,10.72,0,0,0,3.6.859,2.317,2.317,0,0,0,1.021-.193,1.6,1.6,0,0,1,1.443.008,1.655,1.655,0,0,1,.867,1.17,19.223,19.223,0,0,1-5.393,15.933,27.684,27.684,0,0,1-11.933,6.862,61.89,61.89,0,0,1-17.912,2.291,143.826,143.826,0,0,1-24.422-2.407C120.825,175.6,119.178,175.386,116.573,175.118Zm-13.826-.9v43.853a1.671,1.671,0,0,1,.031,1.387c-.009.022-.019.043-.029.064l0,30.371,12.365,6.855V174.974c-3.079-.294-7.725-.664-12.365-.752ZM88.92,216.915v25.316l12.366,6.855v-28.64a1.749,1.749,0,0,1-.321-.033A79.693,79.693,0,0,1,88.92,216.915ZM75.1,209.467v25.1l12.364,6.854V216.338A56.234,56.234,0,0,1,75.1,209.467ZM61.268,191.438h0V226.9l12.366,6.856V208.33a40.527,40.527,0,0,1-9.853-11.513A38.116,38.116,0,0,1,61.268,191.438Zm3.769-87.469a30.051,30.051,0,0,0-17.528,5.587V219.273l12.3,6.817V186.536c-.176-.79-.325-1.585-.443-2.363a29.094,29.094,0,0,0-1.591,4.4,1.623,1.623,0,0,1-1.5,1.206l-.079,0a1.624,1.624,0,0,1-1.511-1.076c-2.775-7.615-2.32-16.516,1.317-25.74a56.342,56.342,0,0,1,4.586-9.088,20.614,20.614,0,0,0-6.022,2.4,1.6,1.6,0,0,1-1.914-.182,1.655,1.655,0,0,1-.4-1.908,41.881,41.881,0,0,1,14.572-17.685,45.655,45.655,0,0,1,8.275-4.512,50.189,50.189,0,0,1,7.448-2.455,10.3,10.3,0,0,1-.161-7.5,7.611,7.611,0,0,1,5.009-4.175,19.626,19.626,0,0,1,5.747-.906,15.773,15.773,0,0,1,10.337,3.778,36.253,36.253,0,0,1,10.24-1.427c1.014,0,2.051.04,3.082.12V104.039h1.461v15.532a43.635,43.635,0,0,1,10.42,2.548,1.66,1.66,0,0,1,.14-1.4,1.626,1.626,0,0,1,1.391-.8,1.594,1.594,0,0,1,.306.03l.108.022V104.039h1.462v16.284a44.164,44.164,0,0,1,12.365,5.348V104.039h1.462v22.63A25.658,25.658,0,0,1,152.895,134a36.224,36.224,0,0,0,5.388,6.7V104.039h1.461v38.054a54.322,54.322,0,0,0,5.823,4.614,44.343,44.343,0,0,0,6.543,3.762V104.424a30.682,30.682,0,0,0-5.271-.455Zm-4.37,75.85v0a24.393,24.393,0,0,0,.426,4.847A35.727,35.727,0,0,0,65.187,196a40.026,40.026,0,0,0,11.992,12.986c6.393,4.5,14.5,7.8,24.11,9.818a.236.236,0,0,1-.036-.025,33.335,33.335,0,0,1-3.414-3.067,41.178,41.178,0,0,1-6.647-8.944,34.963,34.963,0,0,1-4.267-14.292,39.807,39.807,0,0,1,3.686-19.138,53.947,53.947,0,0,1,10.179-.78,174.814,174.814,0,0,1,20.271,1.422l1.913.326a137.745,137.745,0,0,0,22.174,2.049c7.687,0,14.211-.959,19.391-2.849a24.117,24.117,0,0,0,10.148-6.6,17.536,17.536,0,0,0,4.082-8.561,16.46,16.46,0,0,0,.158-4.967l-.023-.148a3.892,3.892,0,0,1-1.738.348c-3,0-7.861-2.186-13-5.846-5.391-3.839-10-8.526-12.65-12.86l-.193-.309a23.59,23.59,0,0,0-5.467-5.883,34.983,34.983,0,0,0-6.405-3.9,44.1,44.1,0,0,0-8.96-3.147l-.275-.058,3.8,4.79A42.557,42.557,0,0,0,113.7,120.97a34.06,34.06,0,0,0-10.378,1.536l-.257.085a13.87,13.87,0,0,0-9.891-3.991,18.144,18.144,0,0,0-5.313.842,5.97,5.97,0,0,0-3.982,3.235,7,7,0,0,0-.436,3.717,14.359,14.359,0,0,0,1.345,4.325c-8.336,1.7-23.455,7.1-31.064,24.151l.009-.008c.482-.284,4.808-2.777,8.337-2.777a6.18,6.18,0,0,1,1.563.186,51.6,51.6,0,0,0-6.131,11.3,42.4,42.4,0,0,0-2.858,11.5,29.711,29.711,0,0,0,1.556,13.059l0-.015c.21-.746,2.119-7.319,4.456-8.3Zm40.091-5.616a56.324,56.324,0,0,0-9.012.6,42.24,42.24,0,0,0-2.827,9.486v11.286a33.944,33.944,0,0,0,3.631,10.28,39.478,39.478,0,0,0,8.735,10.84V174.2ZM38.013,43.49,2.066,79.956l35.947,36.469,4.346-4.407a32.837,32.837,0,0,1,3.687-3.222v-.228h.308a31.471,31.471,0,0,1,18.682-6.081h101.8a31.467,31.467,0,0,1,18.682,6.081h.044v.032a32.611,32.611,0,0,1,3.951,3.417l4.346,4.406,9.576-9.715v-.1h.1l26.268-26.649L193.862,43.49,189.516,47.9a31.63,31.63,0,0,1-22.677,9.529h-50.7l-.2.036-.006-.036h-.238l-.006.036-.2-.036H65.037A31.634,31.634,0,0,1,42.359,47.9L38.013,43.49Zm127.273,5.292-40.72,7.163h42.271a30.7,30.7,0,0,0,3.766-.231A68.161,68.161,0,0,0,165.287,48.782Zm-98.962,0h0a67.88,67.88,0,0,0-5.3,6.9,30.807,30.807,0,0,0,4.009.262h42.007l-40.72-7.162Zm49.481-24.008a67,67,0,0,1,45.472,17.788,68.94,68.94,0,0,1,10.927,12.91,30.082,30.082,0,0,0,6.059-1.753,76.666,76.666,0,0,0-12.152-14.179,74.569,74.569,0,0,0-100.56-.051A76.652,76.652,0,0,0,53.4,53.632a30.086,30.086,0,0,0,6.034,1.8A68.933,68.933,0,0,1,70.361,42.537a66.92,66.92,0,0,1,45.445-17.763Zm40.581,15.554h0L122.072,54.88l42.048-7.4a66.737,66.737,0,0,0-7.734-7.156Zm-81.162,0a66.709,66.709,0,0,0-7.733,7.156l42.046,7.4Zm71.2-6.484-25.71,20,34.321-14.556a65.931,65.931,0,0,0-8.61-5.448Zm-61.241,0a65.985,65.985,0,0,0-8.61,5.448L110.9,53.848ZM136.07,29.46,119.3,53.083,144.981,33.1a65.819,65.819,0,0,0-8.911-3.642Zm-40.529,0a65.578,65.578,0,0,0-8.91,3.642l25.681,19.979ZM115.8,18.328a76.2,76.2,0,0,1,51.585,20.109,78.387,78.387,0,0,1,12.425,14.6,30.59,30.59,0,0,0,8.668-6.185l5.379-5.458L204.1,51.774V32.4c-.8.031-1.651.046-2.527.046a80.233,80.233,0,0,1-16.213-1.63c-13.495-2.849-22.791-9.222-26.884-18.429L116.081,1.528,73.691,12.384C69.6,21.591,60.3,27.964,46.808,30.813A80.241,80.241,0,0,1,30.6,32.443c-1.119,0-1.992-.025-2.528-.046V51.483l9.946-10.09,5.379,5.458a30.632,30.632,0,0,0,8.466,6.088A78.359,78.359,0,0,1,64.282,38.38,76.109,76.109,0,0,1,115.8,18.328Zm-10.595,8.786A65.36,65.36,0,0,0,97.016,29L113.57,52.319Zm21.194,0-8.362,25.2L134.6,29a65.564,65.564,0,0,0-8.193-1.885Zm-11.328-.853a65.877,65.877,0,0,0-8.4.631l8.4,25.316Zm1.462,0V52.206l8.4-25.314A65.886,65.886,0,0,0,116.537,26.261Zm26.626,146.946a77.522,77.522,0,0,1-24.1-4.016l-.386-.127a51.873,51.873,0,0,0-15.8-2.9,24.6,24.6,0,0,0-8.881,1.5,14.164,14.164,0,0,1,9.093-3.8,37.01,37.01,0,0,0-5.953-.464,27.532,27.532,0,0,0-9.968,1.643,13.447,13.447,0,0,0-7.915,7.333v-.009a19.177,19.177,0,0,1,2.124-6.475,13.972,13.972,0,0,1,3.975-4.627,13.325,13.325,0,0,1,7.088-2.456,19.642,19.642,0,0,0-6-.905,17.086,17.086,0,0,0-7.1,1.462,16.409,16.409,0,0,0-6.936,6.094v-.006a19.665,19.665,0,0,1,4.788-5.878,23.475,23.475,0,0,1,6.837-4.046A29.322,29.322,0,0,1,94.581,153.7c.709,0,1.436.021,2.16.063a13.031,13.031,0,0,0-2.885-2.2,20.051,20.051,0,0,0-8.779-2.594l.006,0a52.762,52.762,0,0,1,13.672-1.638,62.891,62.891,0,0,1,11.047.979,62.042,62.042,0,0,1,12.82,3.757c.863.564,1.712,1.135,2.522,1.695C131.136,157.9,136.812,160,142.016,160c8.914,0,13.477-6.159,13.812-7.036a.538.538,0,0,1-.311.079c-.732,0-3.06-.877-8.862-9l-.675-.949a37.323,37.323,0,0,0-10.84-9.836,64.227,64.227,0,0,0-15.424-6.635l.079-.005c.439-.032.895-.048,1.354-.048,7.077,0,15.433,3.683,17.825,4.811l.623.3.508-3.192c2.722.762,4.854,3.507,8.725,8.491l.005.007.019.024.032.042c1.407,1.811,3,3.863,4.957,6.261l.715.872a41.535,41.535,0,0,0,9.461,8.369,44.3,44.3,0,0,0,7.589,3.957l.374.147a29.83,29.83,0,0,1-7.017,1.027,9.726,9.726,0,0,1-4.066-.732,16.878,16.878,0,0,0,1.3,2.694,8.274,8.274,0,0,0,3.773,3.692,18.621,18.621,0,0,1-4.02,4.138,25.876,25.876,0,0,1-5.405,3.229,30.448,30.448,0,0,1-8.006,2.278C146.792,173.131,144.983,173.207,143.162,173.207Zm.746-22.9h0a16.837,16.837,0,0,1-9.127-3.891,16.292,16.292,0,0,1-3.044-3.292c.3-.018.6-.026.868-.026a12.024,12.024,0,0,1,8.736,3.6,13.105,13.105,0,0,1,2.568,3.6Zm49.952-36.464h0l-3.069-3.114a33.412,33.412,0,0,0-23.953-10.066H65.036a33.4,33.4,0,0,0-23.952,10.066l-3.071,3.113-33.4-33.88,33.4-33.88,3.071,3.115A33.41,33.41,0,0,0,65.036,59.257h101.8a33.414,33.414,0,0,0,23.953-10.066l3.07-3.116,33.4,33.881-33.4,33.881ZM65.036,99.175h101.8a34.851,34.851,0,0,1,24.986,10.5l2.037,2.065,31.332-31.784L193.861,48.172l-2.037,2.066a34.851,34.851,0,0,1-24.986,10.5H65.036A34.857,34.857,0,0,1,40.05,50.24l-2.037-2.066L6.682,79.957,38.013,111.74l2.037-2.065A34.851,34.851,0,0,1,65.036,99.175ZM165.647,88.03a5.575,5.575,0,0,1-3.875-1.222c-1.06-.97-1.554-2.461-1.554-4.692V79.53c0-2.7,0-3.187-.034-3.754s-.155-.88-.751-1.009a3.62,3.62,0,0,0-.68-.053c-.214,0-.3-.045-.3-.159s.1-.159.384-.159c.528,0,1.105.017,1.614.032.38.011.708.021.934.021.188,0,.52-.011.872-.023.438-.014.93-.031,1.274-.031.28,0,.384.043.384.159s-.083.159-.279.159a2.578,2.578,0,0,0-.5.052h-.007c-.5.093-.613.44-.645,1.009s-.035,1.054-.035,3.754V82.01c0,2.294.395,3.556,1.362,4.355a3.212,3.212,0,0,0,2.182.726,3.433,3.433,0,0,0,2.408-.956c.938-.951,1.012-2.485,1.012-4.392V79.53c0-2.7,0-3.187-.035-3.754s-.154-.88-.751-1.009a3.314,3.314,0,0,0-.628-.053c-.214,0-.3-.045-.3-.159s.1-.159.366-.159c.357,0,.986.009,1.956.051h.015l.037,0c.075,0,.263-.007.5-.015.445-.016,1.049-.038,1.488-.038.268,0,.367.043.367.159s-.088.159-.315.159a2.576,2.576,0,0,0-.5.052h-.007c-.5.093-.613.44-.646,1.009s-.034,1.054-.034,3.754v1.895c0,2.019-.2,4.062-1.658,5.33A5.19,5.19,0,0,1,165.647,88.03Zm-112.527,0a5.578,5.578,0,0,1-3.875-1.222c-1.06-.97-1.553-2.461-1.553-4.692V79.53c0-2.7,0-3.187-.034-3.754s-.155-.88-.751-1.009a3.628,3.628,0,0,0-.681-.053c-.213,0-.3-.045-.3-.159s.1-.159.383-.159c.528,0,1.106.017,1.615.032.38.011.708.021.934.021.189,0,.521-.011.872-.023.435-.014.928-.031,1.274-.031.28,0,.384.043.384.159s-.083.159-.279.159a2.562,2.562,0,0,0-.5.051l-.01,0c-.5.093-.614.441-.645,1.009s-.035,1.054-.035,3.754V82.01c0,2.294.394,3.555,1.361,4.355a3.215,3.215,0,0,0,2.183.726,3.433,3.433,0,0,0,2.408-.956c.938-.952,1.012-2.486,1.012-4.392V79.53c0-2.7,0-3.187-.036-3.754s-.154-.88-.75-1.009a3.358,3.358,0,0,0-.628-.053c-.211,0-.3-.046-.3-.159s.1-.159.366-.159c.357,0,.986.009,1.956.051h.052c.074,0,.263-.007.5-.015.445-.016,1.049-.038,1.488-.038.268,0,.367.043.367.159s-.088.159-.315.159a2.576,2.576,0,0,0-.5.052h-.007c-.5.093-.613.44-.646,1.009s-.034,1.054-.034,3.754v1.895c0,2.019-.2,4.062-1.658,5.33A5.19,5.19,0,0,1,53.12,88.03Zm76.961-.2c-1.042,0-1.868-.022-2.532-.04h-.033l-.454-.012c-.816-.038-1.325-.053-1.815-.053-.187,0-.576,0-.994.018-.207,0-.428.009-.641.018s-.394.017-.563.017c-.235,0-.349-.058-.349-.177,0-.1.086-.141.279-.141a2.857,2.857,0,0,0,.629-.07c.354-.072.439-.484.506-.975.087-.743.087-2.146.087-3.772V79.53c0-2.7,0-3.187-.035-3.754s-.155-.88-.751-1.009a3.621,3.621,0,0,0-.68-.053c-.211,0-.3-.046-.3-.159s.1-.159.384-.159c.241,0,.491,0,.733.009s.465.009.681.009l.262.01c.343.013.64.025.837.025,1.212,0,4.063,0,4.363-.018a6.677,6.677,0,0,0,.75-.105.956.956,0,0,0,.106-.031.592.592,0,0,1,.174-.04c.092,0,.1.081.1.159a1.021,1.021,0,0,1-.023.166,7.433,7.433,0,0,0-.116.984c-.007.065-.015.209-.025.376-.018.293-.04.657-.062.793-.018.091-.053.194-.175.194s-.157-.072-.157-.248a1.948,1.948,0,0,0-.105-.637c-.112-.295-.27-.529-1.169-.638-.3-.036-2.153-.071-2.479-.071-.086,0-.122.053-.122.177v4.48c0,.126.02.194.122.194.893,0,2.443,0,2.793-.035a1.219,1.219,0,0,0,.838-.266l.026-.03c.108-.125.173-.2.253-.2s.122.048.122.142a1.618,1.618,0,0,1-.021.182c-.025.178-.072.51-.119,1.11-.008.147-.021.356-.034.558v.022c-.018.275-.034.535-.034.606,0,.142,0,.337-.158.337a.139.139,0,0,1-.157-.159c0-.048-.008-.1-.012-.155a2.968,2.968,0,0,0-.059-.483c-.1-.414-.4-.627-.976-.69-.335-.035-2.1-.053-2.479-.053-.087,0-.105.071-.105.177v1.4c0,.175,0,.436,0,.731,0,.734-.009,1.648,0,2.014.039,1.313.456,1.488,2.1,1.488a4.4,4.4,0,0,0,1.641-.212c.447-.209.66-.564.786-1.31.033-.187.067-.266.191-.266.14,0,.14.141.14.319a14.244,14.244,0,0,1-.227,1.966C130.9,87.835,130.743,87.835,130.081,87.835Zm-17.469,0c-.958,0-1.707-.02-2.367-.038l-.583-.015c-.83-.037-1.447-.052-2.129-.052-.187,0-.576,0-1,.017-.207,0-.428.009-.641.018s-.394.017-.563.017c-.238,0-.349-.056-.349-.177,0-.1.086-.141.279-.141a2.819,2.819,0,0,0,.629-.07c.354-.072.439-.484.506-.975.087-.743.087-2.146.087-3.771V79.531c0-2.7,0-3.188-.035-3.755s-.155-.88-.75-1.009a2.565,2.565,0,0,0-.577-.053c-.213,0-.3-.045-.3-.159s.1-.159.383-.159c.467,0,1.018.017,1.5.032.367.011.683.021.887.021.184,0,.527-.01.924-.022.5-.015,1.068-.031,1.45-.031.264,0,.366.045.366.159s-.085.159-.314.159a4.618,4.618,0,0,0-.68.053c-.5.093-.614.44-.646,1.009s-.035,1.054-.035,3.755v3.116c0,2.249,0,3.488.366,3.807.283.253.7.39,2.112.39.989,0,1.62-.033,2.042-.5a2.247,2.247,0,0,0,.454-1.063c.019-.168.056-.265.193-.265.118,0,.14.079.14.3a14.266,14.266,0,0,1-.262,2.037C113.6,87.756,113.5,87.835,112.612,87.835Zm92.144-.053c-.67,0-1.331-.019-1.862-.034-.344-.01-.614-.018-.791-.018-.2,0-.546.011-.907.022h-.006c-.441.014-.94.03-1.3.03-.233,0-.367-.029-.367-.177,0-.1.083-.141.262-.141a2.815,2.815,0,0,0,.628-.07c.355-.072.44-.484.507-.975.087-.743.087-2.079.087-3.771V79.531c0-2.7,0-3.188-.035-3.755s-.155-.88-.751-1.009a3.628,3.628,0,0,0-.681-.053c-.2,0-.3-.046-.3-.141,0-.148.154-.177.4-.177.228,0,.471,0,.707.009s.479.009.707.009l.263.01c.344.013.64.025.836.025,1.571,0,4.26,0,4.608-.018l.156-.007h.007a2.362,2.362,0,0,0,.553-.062.942.942,0,0,0,.111-.049.4.4,0,0,1,.168-.057c.068,0,.122.07.122.159a1.111,1.111,0,0,1-.037.216,4.851,4.851,0,0,0-.1.58c-.006.066-.015.252-.025.467-.018.371-.04.833-.062.966-.018.149-.054.248-.174.248s-.158-.1-.175-.284a1.756,1.756,0,0,0-.105-.672,1.257,1.257,0,0,0-1.152-.532l-2.687-.053c-.115,0-.158.067-.158.248v4.427c0,.107.018.158.122.158l2.234-.017c.3,0,.542,0,.786-.018a.9.9,0,0,0,.751-.319l.04-.051c.062-.079.1-.127.187-.127.07,0,.1.052.1.159,0,.045-.016.151-.038.3-.03.205-.072.484-.1.8-.035.357-.07,1.173-.07,1.292,0,.158,0,.337-.174.337-.13,0-.14-.189-.14-.247a1.935,1.935,0,0,0-.1-.549,1.016,1.016,0,0,0-.89-.637c-.394-.049-1.938-.054-2.583-.054-.091,0-.122.04-.122.159v1.435c0,1.692,0,3.028.087,3.771.048.471.136.9.68.975a7.339,7.339,0,0,0,.873.07c.205,0,.3.044.3.141C205.14,87.727,205.021,87.781,204.755,87.781Zm-18.01,0c-.669,0-1.331-.019-1.863-.035-.342-.01-.612-.018-.791-.018-.206,0-.549.011-.913.022-.441.014-.941.03-1.3.03-.232,0-.366-.029-.366-.177,0-.1.083-.141.262-.141a2.816,2.816,0,0,0,.628-.07c.356-.073.44-.484.506-.975.087-.743.087-2.079.087-3.771V79.531c0-2.7,0-3.188-.035-3.755s-.154-.88-.75-1.009a3.574,3.574,0,0,0-.681-.053c-.2,0-.3-.046-.3-.141,0-.148.153-.177.4-.177.228,0,.472,0,.708.009s.479.009.706.009l.265.01c.344.013.64.025.834.025,1.571,0,4.259,0,4.608-.018l.163-.008a2.357,2.357,0,0,0,.553-.062.946.946,0,0,0,.111-.049.4.4,0,0,1,.169-.057c.068,0,.121.07.121.159a1.113,1.113,0,0,1-.038.217,4.848,4.848,0,0,0-.1.58c-.006.065-.015.249-.025.462v.006c-.018.371-.04.832-.062.965-.018.149-.055.248-.175.248s-.157-.1-.175-.284a1.77,1.77,0,0,0-.1-.672,1.257,1.257,0,0,0-1.152-.532l-2.688-.053c-.114,0-.157.067-.157.248v4.427c0,.107.018.158.121.158l2.235-.017c.3,0,.541,0,.785-.018a.9.9,0,0,0,.751-.319l.039-.049c.063-.08.1-.128.188-.128.069,0,.1.054.1.159,0,.045-.016.151-.038.3-.031.207-.072.485-.1.8-.035.356-.07,1.165-.07,1.292,0,.158,0,.337-.175.337-.129,0-.14-.189-.14-.247a1.934,1.934,0,0,0-.1-.549,1.016,1.016,0,0,0-.89-.637c-.394-.049-1.938-.054-2.584-.054-.091,0-.121.04-.121.159v1.435c0,1.692,0,3.028.087,3.771.048.472.136.9.68.975a7.305,7.305,0,0,0,.873.07c.208,0,.3.042.3.141C187.129,87.727,187.011,87.781,186.745,87.781Zm-40.61,0c-.706,0-1.381-.02-1.924-.035-.34-.01-.607-.018-.782-.018s-.473.01-.821.021c-.46.015-.982.032-1.379.032-.235,0-.349-.058-.349-.177,0-.1.086-.141.28-.141a2.784,2.784,0,0,0,.628-.071c.355-.071.44-.483.507-.974.087-.743.087-2.147.087-3.772V79.53c0-2.7,0-3.187-.035-3.754s-.155-.88-.751-1.009a3.627,3.627,0,0,0-.681-.053c-.213,0-.3-.045-.3-.159s.1-.159.383-.159c.535,0,1.141.018,1.628.033.366.011.68.02.886.02.348,0,.759-.012,1.194-.025.453-.014.922-.028,1.336-.028,2.186,0,2.984.759,3.246,1.009a3.108,3.108,0,0,1,.873,2.108,4.136,4.136,0,0,1-4.294,4.284,2.646,2.646,0,0,1-.366-.017l-.014,0c-.087-.018-.2-.04-.2-.157,0-.144.128-.2.489-.2a2.772,2.772,0,0,0,2.339-2.921,3.471,3.471,0,0,0-1.03-2.657,2.563,2.563,0,0,0-1.746-.69,2.5,2.5,0,0,0-.68.071c-.093.037-.139.15-.139.336v7.082c0,1.625,0,3.029.087,3.79.049.462.137.883.68.956a7.086,7.086,0,0,0,.89.071c.183,0,.279.049.279.141C146.467,87.719,146.349,87.781,146.136,87.781Zm-53.907,0c-.669,0-1.331-.019-1.862-.034-.343-.01-.613-.018-.791-.018-.206,0-.549.011-.913.022-.441.014-.941.03-1.3.03-.232,0-.366-.029-.366-.177,0-.1.083-.141.262-.141a2.815,2.815,0,0,0,.628-.07c.356-.072.44-.484.506-.975.087-.743.087-2.079.087-3.771V79.531c0-2.7,0-3.188-.034-3.755s-.155-.88-.751-1.009a3.628,3.628,0,0,0-.681-.053c-.2,0-.3-.046-.3-.141,0-.148.153-.177.4-.177.228,0,.472,0,.707.009s.479.009.707.009l.263.01c.344.013.64.025.836.025,1.571,0,4.259,0,4.608-.018l.146-.007H94.4a2.357,2.357,0,0,0,.553-.062.946.946,0,0,0,.111-.049.4.4,0,0,1,.169-.057c.068,0,.121.07.121.159a1.114,1.114,0,0,1-.038.217,4.845,4.845,0,0,0-.1.58c-.006.065-.015.249-.025.462v.006c-.018.371-.04.833-.062.966-.018.149-.054.248-.175.248s-.158-.1-.175-.284a1.771,1.771,0,0,0-.1-.672A1.257,1.257,0,0,0,93.52,75.4l-2.688-.053c-.114,0-.157.067-.157.248v4.427c0,.107.018.158.121.158l2.235-.017c.3,0,.541,0,.785-.018a.9.9,0,0,0,.751-.319l.039-.049c.062-.08.1-.128.187-.128.07,0,.105.054.105.159,0,.045-.016.149-.037.295-.031.207-.072.487-.1.8-.035.357-.07,1.165-.07,1.292,0,.158,0,.337-.175.337-.129,0-.14-.189-.14-.247a2,2,0,0,0-.1-.549,1.016,1.016,0,0,0-.89-.637c-.394-.049-1.938-.054-2.584-.054-.091,0-.121.04-.121.159v1.435c0,1.692,0,3.028.087,3.771.048.471.136.9.68.975a7.337,7.337,0,0,0,.873.07c.208,0,.3.042.3.141C92.612,87.727,92.494,87.781,92.228,87.781Zm-18.01,0c-.669,0-1.331-.019-1.862-.034-.343-.01-.613-.018-.791-.018-.206,0-.549.011-.913.022-.441.014-.941.03-1.3.03-.232,0-.366-.029-.366-.177,0-.1.083-.141.262-.141a2.853,2.853,0,0,0,.628-.07c.354-.072.439-.484.506-.975.087-.743.087-2.079.087-3.771V79.531c0-2.7,0-3.188-.035-3.755s-.154-.88-.751-1.009a3.621,3.621,0,0,0-.68-.053c-.2,0-.3-.046-.3-.141,0-.148.154-.177.4-.177.228,0,.471,0,.707.009s.479.009.706.009l.265.01c.343.013.639.025.834.025,1.571,0,4.259,0,4.608-.018l.162-.008a2.359,2.359,0,0,0,.553-.062.928.928,0,0,0,.112-.05.4.4,0,0,1,.167-.056c.07,0,.122.069.122.159a1.114,1.114,0,0,1-.038.217,4.848,4.848,0,0,0-.1.58c-.006.066-.015.252-.026.468-.018.371-.04.833-.062.966-.018.149-.054.248-.175.248s-.157-.1-.175-.284a1.77,1.77,0,0,0-.1-.672A1.257,1.257,0,0,0,75.51,75.4l-2.688-.053c-.115,0-.157.067-.157.248v4.427c0,.105.019.158.123.158l2.234-.017c.29,0,.541,0,.786-.018a.9.9,0,0,0,.751-.319l.04-.05c.062-.079.1-.127.187-.127.069,0,.1.054.1.159,0,.045-.016.151-.038.3-.03.2-.072.483-.1.8-.035.357-.07,1.165-.07,1.292,0,.158,0,.337-.175.337-.129,0-.139-.189-.139-.247a2,2,0,0,0-.1-.549,1.016,1.016,0,0,0-.89-.637c-.394-.049-1.938-.054-2.583-.054-.092,0-.123.04-.123.159v1.435c0,1.692,0,3.028.088,3.771.048.471.136.9.68.975a7.341,7.341,0,0,0,.873.07c.208,0,.3.042.3.141C74.6,87.727,74.484,87.781,74.218,87.781Zm-37.066,0c-.686,0-1.354-.019-1.891-.035-.344-.01-.64-.018-.833-.018-.174,0-.477.01-.827.021-.456.015-.97.032-1.355.032-.25,0-.366-.056-.366-.177,0-.1.086-.141.28-.141a2.833,2.833,0,0,0,.627-.07c.356-.072.44-.484.506-.975.088-.743.088-2.146.088-3.771V81.088a.1.1,0,0,0-.105-.105H26.61c-.044,0-.1.011-.1.105v1.559c0,1.625,0,3.028.086,3.789.049.462.137.883.68.957a7.324,7.324,0,0,0,.89.07c.183,0,.279.049.279.141,0,.147-.19.177-.349.177-.685,0-1.353-.019-1.889-.035-.344-.01-.639-.018-.833-.018-.173,0-.473.01-.82.021-.461.015-.982.032-1.379.032-.235,0-.349-.058-.349-.177,0-.1.086-.141.28-.141a2.833,2.833,0,0,0,.627-.07c.355-.072.44-.484.507-.975.086-.743.086-2.146.086-3.771V79.53c0-2.7,0-3.187-.034-3.754s-.154-.88-.751-1.009a3.62,3.62,0,0,0-.68-.053c-.211,0-.3-.046-.3-.159s.1-.159.366-.159c.552,0,1.166.018,1.659.033.354.011.658.02.854.02s.492-.01.85-.022c.456-.015.967-.031,1.349-.031.267,0,.366.043.366.159s-.085.159-.313.159a3.074,3.074,0,0,0-.507.053c-.5.093-.613.44-.645,1.009s-.034,1.054-.034,3.754V79.9c0,.092.053.124.1.124h6.667c.051,0,.105-.033.105-.124V79.53c0-2.7,0-3.187-.035-3.754s-.155-.88-.751-1.009a3.562,3.562,0,0,0-.681-.053c-.21,0-.3-.046-.3-.159s.1-.159.366-.159c.552,0,1.166.018,1.659.033.353.011.658.02.854.02s.495-.01.853-.022c.455-.015.965-.031,1.345-.031.268,0,.367.043.367.159s-.088.159-.314.159a3.074,3.074,0,0,0-.507.053c-.5.093-.613.44-.645,1.009s-.035,1.054-.035,3.754v3.117c0,1.625,0,3.028.087,3.789.049.462.137.883.68.957a7.322,7.322,0,0,0,.89.07c.182,0,.279.049.279.141C37.5,87.751,37.312,87.781,37.153,87.781ZM209.834,75.147h-.252v-.021h.007a.126.126,0,0,0,.046-.008.069.069,0,0,0,.032-.023.107.107,0,0,0,.017-.04s0-.023,0-.057v-.473a.221.221,0,0,0-.006-.071.052.052,0,0,0-.024-.024.1.1,0,0,0-.049-.012h-.023V74.4h.3l.207.493.2-.493h.3v.02h-.024a.1.1,0,0,0-.052.013.055.055,0,0,0-.022.025.256.256,0,0,0-.005.069v.493a.283.283,0,0,0,.005.072.058.058,0,0,0,.024.025.1.1,0,0,0,.049.011h.024v.02h-.385v-.021h.024a.108.108,0,0,0,.052-.012.056.056,0,0,0,.022-.027.221.221,0,0,0,.005-.069v-.554l-.283.683h-.013l-.287-.679V75a.482.482,0,0,0,0,.068.082.082,0,0,0,.031.044.126.126,0,0,0,.074.018v.021Zm-.454,0h-.386v-.02h.025a.113.113,0,0,0,.052-.012.061.061,0,0,0,.022-.027.259.259,0,0,0,.005-.069v-.577h-.053a.157.157,0,0,0-.108.032.213.213,0,0,0-.059.128h-.021v-.2h.662v.2h-.02a.348.348,0,0,0-.039-.1.142.142,0,0,0-.059-.049.19.19,0,0,0-.072-.01h-.055v.577a.225.225,0,0,0,.006.072.059.059,0,0,0,.024.025.11.11,0,0,0,.05.011h.024v.019Z" transform="translate(0 0)" fill="#fff"/>
</svg>
