<svg xmlns="http://www.w3.org/2000/svg" width="224" height="238" viewBox="0 0 224 238"><g><g><path fill="#fff" d="M29.27 18.164c0 1.645-.581 2.566-1.185 3.008-.361.26-.623.34-1.426.34-.503 0-1.106-.06-1.528-.2-.14-.06-.181-.14-.181-.36v-6.095l.004-.074c.012-.112.06-.174.177-.207.143-.043.369-.066.67-.075l.395-.005c1.186 0 3.075.821 3.075 3.668zm132.063-.617l1.81 4.94.006.035c.002.046-.027.085-.107.085h-3.699l-.04-.007c-.046-.018-.056-.07-.04-.134l1.85-4.919.014-.05c.022-.066.057-.13.105-.13.06 0 .081.1.101.18zm-115.7 0l1.81 4.94.006.035c.002.046-.027.085-.107.085h-3.699l-.04-.007c-.046-.018-.056-.07-.04-.134l1.85-4.919.014-.05c.023-.066.058-.13.106-.13.06 0 .08.1.1.18zm-19.426-3.99l-2.017.05-.549.004-1.949-.052-.702-.007c-.301 0-.442.04-.442.181 0 .14.12.18.342.18.281 0 .623.021.783.06.664.141.825.463.865 1.145.008.128.014.253.02.395l.014.71.006 6.685-.003 1.742c-.008 1.08-.03 1.972-.098 2.534-.08.583-.18 1.024-.582 1.105-.181.04-.423.08-.724.08l-.094.003c-.168.015-.227.072-.227.158 0 .14.14.2.401.2l.194-.001.42-.007 1.839-.052 2.098.052.857.008c.26 0 .401-.06.401-.2 0-.1-.08-.161-.24-.161-.242 0-.685-.04-.986-.08-.603-.081-.723-.522-.784-1.105l-.02-.186c-.035-.393-.055-.91-.066-1.517l-.009-.635-.005-2.24.007-.062c.019-.072.073-.098.154-.098l1.83.043c.107.01.2.041.28.138.072.083.194.246.35.461l1.207 1.708.64.884c1.015 1.38 1.737 2.236 2.547 2.669.522.28 1.025.381 2.15.381h1.91l.097-.003c.181-.01.285-.06.285-.197 0-.1-.081-.161-.241-.161a3.21 3.21 0 0 1-.564-.06c-.3-.06-1.125-.2-2.25-1.366-.653-.684-1.366-1.533-2.173-2.532l-.624-.778-1.565-1.97c2.03-1.646 2.653-3.011 2.653-4.497 0-1.345-.804-2.369-1.367-2.75-1.085-.744-2.432-.864-3.698-.864-.102 0-.228.002-.371.004zm135.09.234l-.12.283-5.123 12.632c-.377.903-.767 1.51-1.635 1.623-.16.02-.442.04-.623.04l-.074.003c-.112.012-.167.057-.167.157 0 .161.12.201.382.201 1.046 0 2.152-.06 2.373-.06l.4.006c.56.016 1.217.054 1.732.054.22 0 .342-.04.342-.2 0-.12-.06-.161-.302-.161h-.302l-.136-.005c-.514-.036-.669-.284-.669-.617 0-.241.101-.723.303-1.225l1.11-2.814c.034-.072.076-.097.156-.097h4.485l.056.005c.069.013.113.055.146.135l1.608 4.136.027.087a.316.316 0 0 1-.208.375c-.2.02-.281.06-.281.18 0 .094.107.125.286.142l.317.02c.43.01.848.018 1.246.024l1.117.011 1.743.001c.491-.012.62-.061.62-.198 0-.14-.1-.16-.26-.16l-.192-.004c-.201-.009-.427-.031-.653-.076-.423-.1-1.006-.382-1.77-2.189-.178-.421-.392-.937-.631-1.517l-4.167-10.219-.254-.594c-.165-.356-.278-.5-.439-.5-.165 0-.275.149-.442.521zm-115.699 0l-.12.283-5.124 12.632c-.377.903-.767 1.51-1.634 1.623-.161.02-.443.04-.624.04l-.074.003c-.111.012-.167.057-.167.157 0 .161.12.201.382.201 1.046 0 2.152-.06 2.373-.06l.4.006c.56.016 1.217.054 1.732.054.221 0 .342-.04.342-.2 0-.12-.06-.161-.302-.161h-.301l-.137-.005c-.514-.036-.668-.284-.668-.617 0-.241.1-.723.302-1.225l1.11-2.814c.035-.072.076-.097.157-.097h4.485l.055.005c.069.013.114.055.146.135l1.609 4.136.027.087a.317.317 0 0 1-.208.375c-.201.02-.282.06-.282.18 0 .094.107.125.286.142l.317.02c.43.01.849.018 1.246.024l1.118.011 1.743.001c.49-.012.62-.061.62-.198 0-.14-.1-.16-.261-.16l-.192-.004c-.2-.009-.427-.031-.653-.076-.422-.1-1.006-.382-1.77-2.189-.818-1.938-2.413-5.883-3.593-8.788l-1.205-2.948-.254-.594c-.164-.356-.277-.5-.439-.5-.164 0-.275.149-.442.521zm40.82-.32a2.237 2.237 0 0 1-.175.035l-.24.035-.45.051c-.063.003-.226.006-.457.009l-3.454.011-1.396-.004-.983-.036c-.503 0-1.086-.02-1.629-.02l-.106.002c-.229.01-.336.056-.336.179 0 .14.12.18.341.18.282 0 .624.02.784.06.664.142.825.463.865 1.145.012.195.02.382.027.633l.008.537.004 7.668c-.003 1.39-.018 2.55-.1 3.229-.08.582-.18 1.023-.582 1.104-.181.04-.422.08-.724.08l-.094.003c-.169.015-.228.072-.228.157 0 .141.141.201.402.201.402 0 .925-.04 1.387-.04l.18-.006.337-.009.857-.004c.19.002.386.005.593.01l.663.023.607.026c.56.013 1.221.035 2.028.048l.728.01.997.001c.535-.008.687-.068.81-.52.1-.402.26-1.767.26-2.229l-.003-.149c-.008-.126-.04-.212-.157-.212-.141 0-.182.08-.222.3l-.037.198c-.145.695-.388 1.068-.867 1.288-.522.242-1.367.242-1.89.242l-.213-.002c-1.86-.021-2.16-.35-2.198-1.685l-.004-.142c-.003-.16-.005-.37-.005-.605l.005-1.537.004-2.414.002-.067c.009-.083.038-.134.119-.134.289 0 1.121.007 1.823.022l.8.023.23.016c.744.08 1.026.38 1.126.783.03.13.045.26.055.384l.029.386c.012.077.06.133.178.133.135 0 .169-.124.177-.254l.003-.127.08-1.346c.033-.41.065-.707.092-.923l.06-.442.01-.1c0-.12-.061-.16-.141-.16-.1 0-.182.1-.322.26-.181.2-.482.261-.965.301a18.74 18.74 0 0 1-.967.029l-2.249.011c-.12 0-.14-.08-.14-.22v-5.08l.005-.075c.013-.087.055-.126.135-.126.235 0 1.05.014 1.758.033l.892.033.204.015c1.006.12 1.206.36 1.347.722.1.241.12.582.12.723l.003.072c.011.136.058.21.179.21.14 0 .18-.121.2-.222.014-.08.027-.232.04-.406l.074-1.107c.026-.325.057-.552.083-.715l.06-.334.005-.068c0-.1-.02-.18-.12-.18-.101 0-.222.06-.322.08zm58.3.082l-2.54.06c-.543 0-1.81-.06-2.754-.06l-.105.001c-.23.01-.338.056-.338.179 0 .14.121.18.342.18l.154.003c.201.006.381.026.51.058.663.14.823.462.864 1.144.012.2.021.392.027.654l.008.563.004 7.646c-.003 1.379-.019 2.529-.1 3.204-.08.582-.18 1.023-.582 1.104-.181.04-.422.08-.724.08l-.094.003c-.169.015-.227.072-.227.158 0 .14.14.2.402.2.402 0 .925-.04 1.386-.04.138-.005.273-.01.4-.013l.355-.005h.876c.636.007 1.244.026 1.967.058.556.013 1.164.032 1.885.046l.761.01.75.004c1.046 0 1.146-.1 1.267-.542.112-.403.214-1.25.266-1.806l.029-.35.007-.152c0-.241-.02-.342-.16-.342-.162 0-.202.12-.222.301-.04.382-.281.944-.523 1.205-.502.542-1.286.562-2.351.562l-.252-.001c-1.373-.015-1.857-.156-2.18-.44-.312-.267-.393-1.09-.415-2.534l-.005-.57-.002-6.344c0-.789.002-1.31.007-1.692l.015-.62.03-.503c.055-.598.23-.896.731-.988.242-.04.563-.06.784-.06l.096-.003c.178-.01.266-.058.266-.178 0-.141-.14-.18-.422-.18zm-48.43.4l-.189 12.294c-.032 1.386-.142 1.876-.615 2.022-.281.08-.643.1-.905.1l-.08.002c-.153.01-.242.055-.242.158 0 .181.182.201.443.201l.444-.003c.218-.003.426-.009.618-.015l.997-.04.2-.001c.243.004.616.024 1.132.04l.743.016.529.003c.282 0 .462-.04.462-.2 0-.121-.12-.161-.342-.161l-.199-.003a2.852 2.852 0 0 1-.845-.137c-.402-.141-.664-.663-.704-2.23l-.221-8.371h.06l1.706 1.83c.76.806 1.691 1.781 2.64 2.732l1.068 1.063c1.672 1.665 3.525 3.547 4.741 4.737l.654.633c.108.104.219.2.329.263l.41.018c.075-.087.11-.265.11-.555l.222-12.669.005-.203c.036-.973.21-1.353.738-1.503.241-.06.402-.06.603-.06.241 0 .361-.061.361-.181 0-.16-.2-.18-.462-.18h-.223c-.875.008-1.542.06-1.747.06l-.116-.002c-.467-.008-1.357-.059-2.316-.059l-.109.001c-.244.006-.413.04-.413.18 0 .12.08.18.32.18.283 0 .765 0 1.067.12.482.202.663.583.683 1.808l.2 9.014h-.1l-.266-.268c-.53-.546-1.67-1.749-2.721-2.84l-1.133-1.166-1.654-1.656a311.322 311.322 0 0 1-1.874-1.907l-1.793-1.853-1.32-1.388c-.274-.3-.438-.506-.635-.506-.201 0-.261.281-.261.683zm93.534 14.287v.205h.021a.22.22 0 0 1 .062-.13c.023-.021.06-.032.112-.032h.054v.618l-.006.038a.057.057 0 0 1-.022.026.106.106 0 0 1-.054.012h-.025v.02h.397v-.02l-.054-.002-.022-.009a.061.061 0 0 1-.026-.025l-.003-.015-.003-.643.102.003.03.007a.16.16 0 0 1 .06.05c.014.02.027.054.04.102h.019v-.205zm.746 0v.02l.053.003.022.008a.058.058 0 0 1 .026.025l.003.014.002.595a.098.098 0 0 1-.018.04.073.073 0 0 1-.033.024.126.126 0 0 1-.055.008v.02h.26v-.02a.137.137 0 0 1-.076-.017.08.08 0 0 1-.031-.046l-.004-.602.296.686h.014l.29-.692v.595l-.005.038a.059.059 0 0 1-.022.026.109.109 0 0 1-.054.012h-.025v.02h.396v-.02l-.053-.003-.022-.008a.053.053 0 0 1-.026-.026.261.261 0 0 1-.006-.072l.001-.533.005-.037a.052.052 0 0 1 .023-.026.103.103 0 0 1 .053-.012h.025v-.02h-.309l-.206.5-.213-.5zM70.084 13.612h-.07c-.322-.009-1.113-.06-2.042-.06l-.12.002c-.3.009-.443.056-.443.2 0 .14.162.16.342.16l.202.004a2.3 2.3 0 0 1 .603.096c.18.06.261.22.261.381 0 .181-.08.482-.18.743l-.366.955-3.597 9.044h-.08l-3.46-9.115-.08-.212c-.235-.62-.382-1.1-.382-1.335 0-.18.06-.32.2-.421.162-.12.463-.14.786-.14.18 0 .301-.04.301-.181s-.221-.18-.463-.18l-.311.001c-.207.002-.41.007-.604.012l-1.052.035-.506.011c-.704 0-1.85-.06-2.916-.06l-.11.001c-.244.006-.413.04-.413.18 0 .12.06.18.241.18.16 0 .483 0 .784.08.724.202 1.066.422 1.529 1.526l5.274 12.769c.232.546.35.724.558.724.18 0 .294-.13.488-.527l.128-.27.31-.69 3.037-6.94c.56-1.256.969-2.135 1.379-3.06l.275-.628.49-1.153c.424-.969.693-1.329.919-1.518l.094-.072c.271-.18.577-.225.798-.237l.269-.006c.151-.01.24-.058.24-.178 0-.141-.16-.18-.422-.18-.604 0-1.549.06-1.891.06zm124.52-.059l-.486.013-1.026.046c-.181 0-1.025-.06-2.09-.06l-.107.002c-.233.01-.356.056-.356.179 0 .12.14.18.342.18l.159.005c.65.036.805.3.805.598 0 .28-.06.703-.2 1.164-.345 1.152-.908 3.012-1.434 4.769l-.965 3.256-.275.97h-.06l-4.18-10.12-.129-.316c-.173-.425-.274-.627-.455-.627-.16 0-.3.16-.502.723l-3.9 10.48h-.06l-.088-.276a511.755 511.755 0 0 1-1.827-5.977l-.518-1.77-.361-1.332c-.132-.489-.221-.85-.221-1.024 0-.222.04-.362.222-.442.14-.08.34-.08.502-.08l.083-.002c.16-.007.278-.042.278-.18 0-.12-.14-.18-.422-.18-.186 0-.365.002-.536.004l-.7.017-.994.04c-.181 0-1.287-.06-2.332-.06l-.1.001c-.22.01-.342.056-.342.179 0 .16.12.18.321.18l.107.004c.203.013.513.06.697.177.282.2.503.683.744 1.425l4.261 12.75.052.147c.146.416.23.596.41.596.148 0 .243-.09.381-.348l.132-.264.21-.452c.48-1.025 1.517-3.676 2.41-6.007l1.51-3.992h.04l4.309 10.387c.213.503.325.676.495.676.218 0 .324-.168.482-.63l.101-.314c.985-3.012 3.096-9.396 4.02-11.926l.373-1.02c.226-.59.431-.988.753-1.108.221-.08.502-.1.703-.1.181 0 .282-.061.282-.201 0-.121-.14-.16-.362-.16zM120.288 15.4c-1.93 1.767-2.351 4.136-2.351 5.502 0 1.946.522 4.196 2.492 5.922 1.829 1.586 4.14 2.189 6.894 2.189 1.286 0 2.814-.141 3.618-.462.342-.141.422-.241.522-.582.177-.598.383-2.01.432-2.515l.01-.156c0-.16-.04-.3-.18-.3-.161 0-.202.08-.262.4-.08.362-.341.944-.683 1.326-.804.923-1.89 1.124-3.678 1.124-2.694 0-6.331-2.37-6.331-7.147 0-1.948.382-3.855 1.849-5.2.884-.803 2.03-1.245 3.779-1.245 1.849 0 3.416.542 4.08 1.245.502.522.763 1.224.784 1.847 0 .28.04.441.2.441.181 0 .222-.16.242-.461l.01-.127c.027-.472.013-1.44.05-2.041.015-.256.032-.45.048-.602l.047-.405.005-.098c0-.12-.08-.22-.301-.24l-.305-.04c-.516-.079-1.069-.219-1.705-.302-.925-.12-1.668-.201-2.914-.201-2.996 0-4.905.803-6.352 2.128zM13.891 0a1.31 1.31 0 0 0-1.31 1.31v5.066c0 3.009-1.737 5.872-4.891 8.06L.563 19.38a1.309 1.309 0 0 0 0 2.151l7.126 4.94c3.155 2.191 4.892 5.054 4.892 8.063V39.6a1.31 1.31 0 0 0 1.31 1.31l40.172-.002a70.556 70.556 0 0 1 4.596-2.617H15.202v-3.757c0-3.835-2.193-7.557-6.017-10.213l-5.576-3.866 5.576-3.866c3.824-2.654 6.017-6.377 6.017-10.212V2.619H200.06v3.757c0 3.837 2.193 7.559 6.017 10.212l5.573 3.866-5.573 3.866c-3.824 2.654-6.017 6.377-6.017 10.213v3.757H148.13a71.924 71.924 0 0 1 4.759 2.617l48.48.001a1.31 1.31 0 0 0 1.311-1.309v-5.066c0-3.01 1.737-5.873 4.891-8.062l7.124-4.941a1.31 1.31 0 0 0 0-2.151l-7.124-4.942c-3.154-2.188-4.89-5.051-4.89-8.061V1.31A1.31 1.31 0 0 0 201.37 0zm133.544 44.756l.498.422.435.38.292.264.437.403.615.594c.36.355.716.723 1.065 1.105l.283.313c1.99 2.237 3.725 4.897 4.43 7.834 0 0-8.097-5.066-18.59-8.158l-.586-.17-.72-.202-1.173-.308-.977-.24-1.103-.25-.859-.18-.969-.185-.506-.09-.894-.147-.91-.134-.723-.094c-.49-.06-.983-.113-1.476-.157l-.708-.06-.852-.055-.704-.033-.574-.018-.742-.012h-.487l-.776.012a34.687 34.687 0 0 0-3.81.306l-.299.043-.73.116-.74.136-.292.06-.68.148-.316.075-.609.156c-.419.112-.836.233-1.256.367l-.585.194c-2.593.89-5.081 2.19-7.388 3.99 0 0 1.421-.327 3.858-.592l.58-.06.754-.07 1.106-.081c5.103-.33 12.783-.148 21.062 2.447.474.149.95.305 1.427.47l.287.1c2.288.804 4.612 1.8 6.93 3.026 7.015 3.708 11.965 4.818 15.399 4.806 2.392-1.574 5.504-3.16 9.401-4.283-1.537-2.217-4.374-5.731-8.747-9.017l-.608-.448-.525-.373-.538-.37-.463-.307-.498-.321-.72-.447-.535-.319-.62-.354a41.041 41.041 0 0 0-9.798-3.931s2.424 1.362 5.227 3.699zm-50.36-7.818c-3.186.286-6.485.721-9.835 1.351l-.601.115-.387.077-1.211.249-1.251.275-1.017.238-1.327.33-1.04.273-1.03.285-1.283.375c-.432.13-.864.264-1.296.402l.064-.02-1.044.34a72.47 72.47 0 0 0-9.692 4.013l-.732.375-.848.449-.98.538-.771.44-.423.247-.828.498.109-.068a63.08 63.08 0 0 0-.19.116l-.023.014-.043.026-.305.189-.178.111-.64.407c-5.928 3.817-11.389 8.771-15.938 15.17 0 0 1.899-1.97 5.722-4.818l.334-.248.625-.455a84.243 84.243 0 0 1 2.574-1.785l.248-.165.77-.504.557-.357.517-.327c3.838-2.408 8.657-5.037 14.464-7.495l1.117-.466c.467-.191.94-.382 1.42-.57l.404-.159 1.318-.505 1.438-.528a119.304 119.304 0 0 1 14.796-4.258l.944-.204 1.114-.231.719-.144.958-.184 1-.185 1.2-.21 1.073-.179 1.267-.199 1.196-.176 1.036-.143 1.263-.164 1.295-.155 1.07-.119.914-.094 1.05-.101 1.203-.106.622-.051c4.28-.339 8.777-.495 13.491-.43l.918.015 1.643.042c1.3.04 2.617.096 3.95.17 0 0-1.817-.374-4.953-.78l-1.371-.169-1.296-.144a126.869 126.869 0 0 0-9.555-.643 121.637 121.637 0 0 0-12.847.287zm52.547 29.956c1.035.016 12.708.255 25.738 3.045l.955.208c2.67-.65 7.297-1.279 15.115-1.177l1.111.02s-2.098-6.984-4.195-9.08c0 0-18.875-4.189-30.76 6.983zm-12.133-.35a3.669 3.669 0 0 1-3.67 3.667 3.668 3.668 0 0 1-3.67-3.666c0-.186.017-.367.043-.545a2.432 2.432 0 0 0 1.88.893 2.443 2.443 0 0 0 2.445-2.442c0-.6-.225-1.14-.581-1.567a3.667 3.667 0 0 1 3.553 3.66zm25.045-18.614l45.833.034-4.389 23.53a66.29 66.29 0 0 1 2.45 1.164l4.805-25.762.019-.132.004-.106-.003-.095-.022-.163-.028-.112-.044-.125-.082-.166a1.303 1.303 0 0 0-.278-.333l-.14-.106a1.301 1.301 0 0 0-.268-.133l-.036-.012-.17-.043-.128-.018-.11-.004-50.597-.037a64.911 64.911 0 0 1 3.184 2.62zM36.086 47.84L10.307 73.588l-4.67-25.772zm89.694 18.88a7.16 7.16 0 0 0 7.164 7.159 7.162 7.162 0 0 0 7.166-7.159c0-3.953-3.208-7.157-7.166-7.157a7.16 7.16 0 0 0-7.164 7.157zm76.897 14.49l-1.531-.417c-3.19-.817-10.742-2.483-16.645-1.677 0 0 8.285 1.997 16.18 4.623l.75.252 1.048.36c.56.196 1.114.394 1.66.593 3.156 1.158 6.023 2.39 7.975 3.597 0 0-29.01-8.728-48.236-9.077a524.43 524.43 0 0 0-4.817-.066l-3.626-.024-.15.033c-1.553.36-3.542 1.07-2.57 2.233.324.016.661.035 1.011.055l1.088.069.759.052c10.213.724 28.38 2.924 44.374 7.045l.757.197 1.072.286 1.467.404.717.203c7.908 2.263 15.032 5.032 20.04 8.368 0 0-2.293-12.587-18.525-20.537l-.398-.193-.508-.239-.908-.41-.645-.279-.544-.227c-5.134-2.105-11.47-3.747-19.28-4.518 7.118 2.1 14.1 5.075 19.485 9.294zm-1.556 17.007l-.819.326-.679.254c-4.71 1.72-10.057 2.73-15.498 3.284l-1.12.107-1.001.085c-7.268.584-14.575.414-20.637.079l-1.552-.091-1.227-.078-2.445-.172c-3.36-.247-6.026-.487-7.644-.557l-.364-.014c-6.67-.217-6.205 1.826-5.985 2.34l.058.116a245.25 245.25 0 0 0 12.556 1.365l1.298.102 1.5.108c8.515.585 15.8.564 21.988.168l1.29-.089.81-.062.898-.076c6.442-.567 11.578-1.544 15.594-2.618l.995-.275a60.917 60.917 0 0 0 1.825-.55l.412-.132c5.265-1.72 7.942-3.457 8.736-4.026l.257-.193c-.777-.776-2.32-1.741-3.068-2.19l-.427-.25c-1.738 1.18-3.672 2.186-5.75 3.04zm-99.682-33.68c.37 2.047 1.638 7.796 4.964 13.62l.356.61.334.548c2.684 4.333 6.554 8.572 12.09 11.217l.626.29.425.184.496.205c-.324.128-.653.252-.989.372l-.486.17-.69.224-.553.168a29.432 29.432 0 0 1-12.157.936s2.953 2.213 7.428 3.343l.466.112.682.145c4.63.91 10.61.514 16.59-4.298 0 0-2.02 6.236.862 10.6l.16.233.128.175.152.196c.13.16.268.318.413.472l.139.143c1.101 1.104 2.645 1.997 4.788 2.496 0 0-.787-3.85.327-7.897.118-.43.258-.861.422-1.29l.115-.29c.079-.194.163-.386.253-.578l.2-.409.14-.263c.096-.175.196-.349.302-.52l.173-.274a11.035 11.035 0 0 1 3.746-3.534l-.214.127.33-.194.322-.176.344-.175.296-.14.432-.189c.16-.066.323-.13.49-.193l.425-.151.225-.075c1.748-.561 3.844-.887 6.352-.887h32.36l-1.055-.183a261.775 261.775 0 0 0-8.989-1.373l-1.352-.18-2.531-.319a340.868 340.868 0 0 0-18.983-1.75l-.697-.045-1.768-.108-2.022-.115-2.303-.117-.205-.007c-1.18-.061-7.059-.662-7.17-6.586-1.676.574-3.734 1.1-6.184 1.426l-.567.07-.483.054-.546.054-.458.038c-4.004.313-8.902.08-14.73-1.217a23.363 23.363 0 0 1-5.054-2.826l-.35-.264-.464-.37-.328-.274c-3.024-2.578-5.545-6.203-7.018-11.264l-.136-.476zM3.929 45.205l-.053.006-.165.035-.14.048-.122.058-.104.062c-.056.037-.11.078-.16.124l-.04.037-.08.088a1.299 1.299 0 0 0-.295.652l-.012.114-.002.077.006.125.01.084 11.312 62.421c.437-2.104.96-4.143 1.555-6.114l-1.176-6.498 6.404-6.4a83.46 83.46 0 0 1 2.386-4.33l-9.088 9.08-3.56-19.635L38.037 47.84l6.726.004a66.842 66.842 0 0 1 3.126-2.616l-43.82-.03zm170.536 65.52l-20.175 20.16c.174.44.383.88.629 1.32l21.588-21.57c-.67.034-1.352.064-2.042.09zm-26.45 26.419c.192.448.4.89.625 1.323l5.364-5.356c-.345-.27-.703-.564-1.069-.88zm-11.983 11.978c.285.348.593.69.925 1.024l8.447-8.445a26.847 26.847 0 0 1-1.184-.766zm-10.528 10.516c.172.476.35.948.532 1.417l9.759-9.755a57.1 57.1 0 0 1-1.345-.605zM92.774 46.796l-1.152.235-.944.21-.565.131-1.29.318c-.313.08-.639.164-.976.255l-.374.1c-.557.152-1.143.318-1.758.5l-.828.248c-9.847 3.001-25.938 9.707-37.109 23.46-.7.863-1.384 1.751-2.045 2.671l1.05-6.634-1.015.984c-.259.258-.563.567-.907.923l-.928.978c-5.843 6.253-18.988 22.165-23.2 42.641l-.095.476-.161.84-.115.636-.17 1.017a63.019 63.019 0 0 0-.732 7.315l-.033 1.013-.016.998v.925l.007.583.022.88.025.682c.04.929.103 1.863.19 2.802l.04.43.045.433.065.588.082.672.107.792.123.825.184 1.108.176.955.162.81.17.792.108.478.038-.314c.018-.134.044-.308.079-.514l.059-.334.095-.475c.109-.513.258-1.116.458-1.762l.165-.505c.739-2.155 2.053-4.638 4.35-5.872 0 0 .14 1.053.53 2.857l.113.513.216.921c.949 3.933 2.828 10.134 6.321 16.753l.411.767.274.497.449.795c2.401 4.188 5.463 8.463 9.353 12.372l.854.84a51.3 51.3 0 0 0 9.091 6.979s-3.016-4.486-5.85-11.112l-.167-.396-.3-.72c-2.164-5.295-4.115-11.788-4.377-18.401l-.024-.852-.005-.468.002-.588c.037-3.277.522-6.557 1.632-9.71 0 0 .1 4.146.98 8.712l.129.64.115.534c.81 3.667 2.153 7.398 4.37 9.318 0 0-1.159-5.447-.256-13.574l.103-.865c.039-.31.081-.622.126-.939l.128-.848.089-.54c1.677-9.973 6.554-22.97 19.384-34.908 0 0-5.12.189-11.866 4.333l-.643.404c-.52.334-1.047.69-1.582 1.073l-.739.54a42.263 42.263 0 0 0-2.241 1.801l-.498.435-.416.373-.595.55-.42.401-.134.13.025-.024c-.155.15-.31.303-.465.458 0 0 6.802-14.634 22.218-21.971l.277-.13.703-.321.527-.23.79-.33.756-.298a41.26 41.26 0 0 1 4.789-1.508l-.11-.02a24.477 24.477 0 0 0-2.264-.247l-.674-.04-.563-.022-1.106-.02-.72.005c-1.137.017-2.419.087-3.809.243-4.64.521-10.49 1.997-16.27 5.686 0 0 3.857-4.492 11.142-8.325a46.263 46.263 0 0 1 17.44-5.138l.91-.074.67-.042.74-.036a50.331 50.331 0 0 1 7.394.246c2.611.277 5.342.76 8.192 1.499 0 0-4.352-5.539-6.33-12.32l-.157-.563-.124-.478-.071-.294c-.362-1.525-.587-3.098-.604-4.671-.025-2.443.445-4.888 1.694-7.164l-.192.193c-1.327 1.355-8.977 9.63-6.1 17.615 0 0-9.61-10.969 3.816-23.397l.38-.346zM61.655 175.08l1.175-1.174c-.222-.234-.423-.45-.603-.647l-.331-.366-.594.592c.094.536.214 1.07.353 1.595zm70.779-64.488l-.26-.117c-1.988 1.192-5.787 7.207-7.506 10.04l-.882 1.482c.699-2.793 1.864-6.75 2.563-9.078l.582-1.921c-4.719 3.666-7.864 12.57-7.864 12.57l1.048-7.332c-25.135 41.353 4.86 59.567 8.55 61.604l.364.194c-23.657-23.137-10.252-46.274-8.558-48.967l.169-.26c-2.298 7.344 5.075 12.678 6.929 13.882l.412.257c-5.663-7.543 4.387-21.023 6.454-23.643l.36-.448c-1.82 5.915 3.085 10.248 4.403 11.283l.317.238c-4.63-8.323 3.821-17.056 5.863-18.986l.428-.392-6.814-1.046c-2.232 2.228-5.603 1.042-6.558.64zm-32.218 74.299c.254.403.521.787.795 1.154l2.82-2.818a54 54 0 0 1-1.303-.647zm82.84-1.137l-4.835-.018-.457.005a18.62 18.62 0 0 0-13.606 6.381l-1.674 1.923-6.334-.006a1.31 1.31 0 0 0-.424-.07l-10.312-.001 44.375-44.315zM82.723 203.792l15.115 1.155 2.564-1.142-2.562-1.147zm30.8.022l2.567 1.148 15.125-1.135-15.124-1.154zm-10.575-.006l4.015 2.21 4.017-2.205-4.015-2.21zm22.573 5.34l-18.568 7.456-18.556-7.483zm-51.07-11.252a.38.38 0 0 0-.165.511l2.18 4.27-23.42 1.15 24.577 1.115 1.741 3.411-7.871-.005-.077.007a.38.38 0 0 0 .076.753l8.485.006.01.002 6.375.003 20.449 8.247a.383.383 0 0 0 .284 0l20.463-8.216 14.87.01.076-.008a.38.38 0 0 0-.077-.753l-7.874-.005 1.774-3.46 24.42-1.107-23.267-1.143 2.17-4.23a.38.38 0 1 0-.677-.346l-5.274 10.285-6.038-.005a.379.379 0 0 0-.19-.014l-.051.014-40.92-.031a.377.377 0 0 0-.24 0l-6.041-.004-5.256-10.29a.38.38 0 0 0-.511-.167zm10.52 18.726c0 .564.46 1.023 1.029 1.023.567 0 1.028-.46 1.028-1.021 0-.565-.46-1.025-1.028-1.025-.568 0-1.029.458-1.029 1.023zm41.9.036c0 .566.46 1.026 1.03 1.026a1.027 1.027 0 1 0-1.03-1.026zm-36.98 2.127a1.345 1.345 0 0 0 2.689.003 1.344 1.344 0 0 0-2.689-.003zm31.428.023a1.339 1.339 0 1 0 2.676.002 1.337 1.337 0 1 0-2.676-.002zm-26.507 2.136c0 .917.743 1.659 1.659 1.659a1.657 1.657 0 1 0 .003-3.314 1.657 1.657 0 0 0-1.662 1.655zm20.951.016a1.66 1.66 0 0 0 3.32.003 1.66 1.66 0 1 0-3.32-.003zm-16.031 2.144a1.974 1.974 0 0 0 3.949.004 1.975 1.975 0 0 0-3.949-.004zm10.475.008a1.976 1.976 0 0 0 3.951.004 1.976 1.976 0 0 0-3.95-.003zm-5.556 2.145a2.29 2.29 0 0 0 2.296 2.284 2.289 2.289 0 0 0 2.299-2.28 2.29 2.29 0 0 0-2.294-2.285 2.292 2.292 0 0 0-2.3 2.281zm-68.915-39.006a15.992 15.992 0 0 1 12.068 5.505l2.064 2.375c.249.287.61.451.99.451l104.495.007c.133.045.275.07.422.07l7.291.005.142-.008a1.31 1.31 0 0 0 .848-.442l2.066-2.373a15.988 15.988 0 0 1 12.056-5.486l1.976.006-.222 2.259a21.62 21.62 0 0 1-12.476 16.223l-60.53 27.565-61.133-27.654a21.619 21.619 0 0 1-12.45-16.221l-.237-2.291zm-3.323-.013l.246 2.387a22.314 22.314 0 0 0 12.85 16.756l61.28 27.718a.345.345 0 0 0 .285 0l60.677-27.629a22.317 22.317 0 0 0 12.874-16.76l.231-2.345 1.935.008a24.291 24.291 0 0 1-14.264 20.834l-61.592 28.046-62.212-28.137c-8.297-3.754-13.78-11.862-14.23-20.883zm164.792-78.366l-1.21 6.495-61.886 61.814c.265.395.53.78.79 1.158l60.65-60.579-5.316 28.499-46.763 46.709-23.216-.001 3.244-3.24a58.108 58.108 0 0 1-1.75-.2l-3.445 3.44H95.085l.47-.47a45.986 45.986 0 0 1-1.69-.259l-.73.727-23.215-.001 6.996-6.988c-.415-.24-.824-.482-1.225-.726l-7.723 7.714h-16.51l-1.672-1.925a18.631 18.631 0 0 0-1.534-1.57l8.613-8.604a59.05 59.05 0 0 1-1.416-.533l-8.255 8.246a18.612 18.612 0 0 0-11.452-3.946l-5.494-.019-.353-1.949 10.876-10.863c-.36-.295-.713-.592-1.06-.89l-10.116 10.104-3.558-19.637 3.04-3.037a52.596 52.596 0 0 1-.722-1.226l-2.618 2.615-1.986-10.954c-.892 1.03-1.47 2.802-1.84 4.542l5.93 32.718c.003 10.521 6.204 20.122 15.802 24.465l62.757 28.383a1.312 1.312 0 0 0 1.085-.002l62.133-28.29c9.474-4.266 15.65-13.657 15.833-24.01l.003-.392 14.551-78.026c-.895.243-1.828.48-2.8.708z"/></g></g></svg>