<svg xmlns="http://www.w3.org/2000/svg" width="222.899" height="265" viewBox="0 0 222.899 265">
  <g id="Group_4" data-name="Group 4" transform="translate(-1255.5 -339)">
    <g id="Group_3" data-name="Group 3">
      <path id="Subtraction_7" data-name="Subtraction 7" d="M111.374,265a.753.753,0,0,1-.185-.023l-.121-.042-67.49-30.56a28.258,28.258,0,0,1-16.6-25.293l0-.495L0,59.556,0,59.5l.005-.1.016-.085.015-.056.04-.094L.111,59.1l.053-.076.059-.065.044-.04.1-.07.08-.041.095-.033.092-.02.109-.008,26.236.02a7.637,7.637,0,0,0-7.6-6.9.745.745,0,0,1-.733-.633l-.008-.11.012-13.981A.742.742,0,0,1,19.4,36.4h.027a43.552,43.552,0,0,0,9.494-1.11A73.208,73.208,0,0,0,39.513,32l.782-.306,1.134-.455c4.56-1.853,8.793-3.865,16.773-7.976l8.357-4.326,2.483-1.27a163.7,163.7,0,0,1,15.264-7.039A77.973,77.973,0,0,1,94.8,7.255a47.331,47.331,0,0,1,9.489-1.335l.592-.015.029-.225A6.636,6.636,0,0,1,111.248,0l.244,0a6.644,6.644,0,0,1,6.574,5.69l.028.226.593.015c5.68.193,11.955,1.641,19.184,4.428l1.48.583,1.259.513c4.271,1.766,8.549,3.811,15.784,7.545l9.377,4.867,1.8.924c6.447,3.293,10.286,5.084,14.67,6.845l.4.162a75.562,75.562,0,0,0,11.044,3.54,43.817,43.817,0,0,0,9.85,1.2.745.745,0,0,1,.733.633l.007.109-.012,13.982a.744.744,0,0,1-.742.741h-.005a7.636,7.636,0,0,0-7.6,6.888l26.261.021.11.013.116.032.114.052.05.031.066.05.044.041.064.074.054.081.045.093.036.114.009.051a.736.736,0,0,1,.008.136l-.013.11L195.14,208.747l0,.458a28.254,28.254,0,0,1-16.2,25.07l-.425.2-66.825,30.461A.744.744,0,0,1,111.374,265ZM28.467,209.26a26.775,26.775,0,0,0,15.3,23.568l.42.2,67.183,30.42,66.521-30.323a26.77,26.77,0,0,0,15.755-23.706l-2.71-.011-.316,3.217a24.076,24.076,0,0,1-13.439,17.834l-.406.187-65.255,29.747a.356.356,0,0,1-.152.034.367.367,0,0,1-.079-.009l-.076-.024L45.311,230.549a24.091,24.091,0,0,1-13.745-17.625l-.076-.439-.331-3.216Zm3.436.011.32,3.116a23.338,23.338,0,0,0,13,17.3l.393.182,65.751,29.773,65.1-29.678a23.361,23.361,0,0,0,13.342-17.019l.074-.424.306-3.123-2.166-.007h-.019a17.907,17.907,0,0,0-13.181,5.806l-.294.33-2.222,2.555a.743.743,0,0,1-.454.247l-.106.007-7.422-.005-5.088,8.515a.741.741,0,0,1-.527.353l-.111.008-15.628-.011-4.672,9.128,7.675.005a.372.372,0,0,1,.364.3l.007.075a.373.373,0,0,1-.3.364l-.075.007-8.261-.005-.022,0-6.22,0-19.949,8.021a.372.372,0,0,1-.138.026.377.377,0,0,1-.071-.006l-.068-.02-19.943-8.05-14.5-.011a.371.371,0,0,1-.074-.734l.075-.007,7.677.005-4.66-9.137L64.2,227.142a.74.74,0,0,1-.573-.271l-.064-.091-5.077-8.521-7.418-.007a.75.75,0,0,1-.484-.181L50.505,218l-2.219-2.558a17.923,17.923,0,0,0-13.045-6.152l-.443-.005Zm61.39,27.766h0l18.095,7.305,18.1-7.278-36.2-.028Zm38.167-.734a.366.366,0,0,1,.116.019l5.891.005,4.675-9.128-61.485-.045,4.661,9.135,5.891,0a.356.356,0,0,1,.115-.019.4.4,0,0,1,.067.006l.049.013,39.9.03.049-.014A.322.322,0,0,1,131.46,236.3ZM64.63,209.381l-4.862,8.136,4.851,8.141,93.565.068,4.861-8.134-4.85-8.142Zm-.419-1.481,94.406.067a.744.744,0,0,1,.573.272l.064.091,5.075,8.521,7.084.005,2-2.3a19.39,19.39,0,0,1,14.175-6.641l.442,0,5.753.021L221.264,60.39l-101.948-.073a.742.742,0,0,1-.108-1.475l.109-.008,9.429.006a23.026,23.026,0,0,0-15.475-7.7.359.359,0,0,1-.223.077.368.368,0,0,1-.263-.108c-.354-.022-.716-.034-1.106-.038l-.016.014a.364.364,0,0,1-.207.063.369.369,0,0,1-.223-.075l.259,0h-.016a23.032,23.032,0,0,0-17.252,7.743l9.361.008a.742.742,0,0,1,.741.743.743.743,0,0,1-.632.733l-.11.008L92.406,60.3,1.629,60.233,28.337,207.776l6.464.022a19.4,19.4,0,0,1,14.312,6.338l.293.33,2,2.3,7.08.008,5.089-8.515a.735.735,0,0,1,.527-.353ZM105.554,10.1h.026l11.811.009a41.135,41.135,0,0,1,9.2,1.124,72.874,72.874,0,0,1,10.417,3.311l1.39.557,1.273.526c3.335,1.4,6.593,2.933,11.247,5.29L153.9,22.44l1.184.611,8.305,4.316,1.237.636c5.583,2.866,9.254,4.628,13.092,6.286l.4.171c8.079,3.463,14.734,5.38,20.944,6.033l.729.075.077.027.063.038.048.042.03.037a.365.365,0,0,1,.063.142l.007.076-.005,7.114a.369.369,0,0,1-.254.352,11.861,11.861,0,0,0-8.108,10.49l2.723,0a9.122,9.122,0,0,1,8.279-8.334l.074-.007.01-12.536L202.278,38c-5.732-.19-12.081-1.669-19.408-4.519l-.772-.3-1.3-.526c-4.921-2.016-9.335-4.146-18.891-9.116l-4.241-2.207-1.361-.7c-10.243-5.269-17.007-8.345-22.619-10.286a48.12,48.12,0,0,0-16.291-2.947.742.742,0,0,1-.742-.742,5.163,5.163,0,0,0-10.327-.008.744.744,0,0,1-.743.741l-.729,0-.743.017A50.068,50.068,0,0,0,88,10.761c-5.6,2.035-12.39,5.176-22.716,10.5l-6.937,3.591-2.36,1.208a165.916,165.916,0,0,1-15.15,7.011,78.446,78.446,0,0,1-10.613,3.438,47.128,47.128,0,0,1-9.575,1.354l-.519.012-.008,12.537.073.005a9.123,9.123,0,0,1,8.267,8.348l2.724,0a11.8,11.8,0,0,0-2.29-6.289.284.284,0,0,1-.051-.068A11.8,11.8,0,0,0,23.1,48.266a.373.373,0,0,1-.246-.275l-.008-.077.005-7.114.008-.076a.368.368,0,0,1,.061-.139l.04-.047L23,40.5l.067-.04.068-.024.055-.009c6.238-.554,12.907-2.4,20.989-5.8l.813-.345c4.193-1.8,8.151-3.7,14.6-7.018l8.276-4.285,2.282-1.171a.24.24,0,0,1,.059-.03l1.828-.928c5.479-2.764,9.048-4.406,13.169-6.056A75.38,75.38,0,0,1,96.033,11.29,41.526,41.526,0,0,1,105.554,10.1Zm87.423,42.689-62.966,5.245c.222.255.427.5.612.732l.06.076,60.283.044A12.568,12.568,0,0,1,192.977,52.789ZM29.934,52.673a12.562,12.562,0,0,1,2,6.1l60.351.042.061-.076c.205-.254.41-.5.608-.725Zm169.4-11.29-71.172,14.74c.427.4.84.807,1.226,1.219L193.534,52a12.6,12.6,0,0,1,5.432-4.087l.362-.134,0-6.395ZM23.589,41.255l0,6.395.056.02a12.574,12.574,0,0,1,5.737,4.211l64.2,5.44c.39-.415.8-.822,1.219-1.209Zm154.718-5.908a.384.384,0,0,1-.069.05l-.05.022-52.2,18.913c.512.375,1.01.772,1.482,1.177l69.9-14.476a73.916,73.916,0,0,1-17.853-5.18Zm-133.681-.1h0l-1.013.422A74.3,74.3,0,0,1,25.549,40.91L95.488,55.5c.483-.414.979-.807,1.474-1.169L44.745,35.322a.363.363,0,0,1-.12-.071Zm94.341,8.564-15.485,8.9c.61.343,1.206.711,1.769,1.093l52.094-18.876-.986-.43c-3.36-1.481-6.7-3.091-11.521-5.56l-17.405,10-2.183,4.657a.372.372,0,0,1-.251.2l-.085.01ZM58.106,28.867h0l-1.915.971c-3.946,1.988-6.943,3.409-10.023,4.751l-.58.249L97.7,53.808c.567-.384,1.16-.751,1.762-1.089L83.951,43.774l-5.945,0a.37.37,0,0,1-.291-.141l-.045-.073L75.495,38.9,58.106,28.868ZM85.439,43.775l14.791,8.532c.652-.336,1.324-.644,1.994-.916l-8.437-7.609Zm43.69.032-8.424,7.577c.688.279,1.363.589,2.007.921l14.77-8.492ZM94.9,43.782,103,51.09c.613-.224,1.239-.426,1.858-.6l-4.72-6.706Zm27.885.02-4.718,6.682c.634.176,1.262.378,1.866.6l8.1-7.277Zm-21.735-.016,4.579,6.505c.587-.143,1.183-.265,1.772-.364l-2.419-6.138Zm16.9.014h0l-2.42,6.123c.6.1,1.2.223,1.774.363l4.578-6.483-3.932,0Zm-12.166-.009,2.372,6.024c.38-.052.758-.094,1.121-.126l-1.117-5.9Zm9,.006-1.125,5.888c.39.035.768.077,1.122.125l2.376-6.011-2.373,0Zm-5.865,0,1.107,5.839.5-.024.57-.015,0-5.8Zm2.925,0,0,5.8.135,0c.321.006.637.019.94.036l1.113-5.835ZM78.253,29.722l-3.118,6.651,3.108,6.656,66.434.049,3.118-6.651-3.107-6.656Zm74.409-7.07-7.382,6.635,3.261,6.985a.375.375,0,0,1,.026.238l-.026.076-.561,1.193,16.071-9.236L161.271,27.1l-4.709-2.451-1.985-1.024C153.982,23.324,153.356,23,152.663,22.651Zm-82.373-.059h0l-2.6,1.325-7.765,4.018-1.036.532,16.056,9.258-.557-1.193a.369.369,0,0,1-.026-.238l.026-.077,3.271-6.978-7.372-6.647Zm71.245-5.339h0L133.22,29.021l11.239.009,7.5-6.738-1.636-.824c-3.339-1.673-6.213-3.052-8.784-4.215Zm-11.348-4.41-6.4,16.171,8.524.006,8.531-12.077A91.61,91.61,0,0,0,130.186,12.843Zm-9.153-1.834-3.44,18,5.4,0,6.483-16.381A44.133,44.133,0,0,0,121.033,11.009Zm-9.178-.165-.015,18.162,5,0,3.449-18.059c-.821-.057-1.681-.091-2.557-.1Zm-6.316,0c-.968,0-1.929.032-2.856.1L106.1,29l5,0,.014-18.161-5.533,0Zm-3.6.154h0a44.12,44.12,0,0,0-8.444,1.611L99.948,29l5.4,0L101.938,11ZM92.78,12.816A91.816,91.816,0,0,0,82.117,16.9l8.511,12.09L99.149,29ZM81.428,17.209C78.474,18.54,75.062,20.183,71,22.233l7.483,6.748,11.239.009L81.428,17.209Zm29.951,237.21a2.464,2.464,0,1,1,2.468-2.462A2.467,2.467,0,0,1,111.38,254.419Zm5.635-2.656a2.124,2.124,0,1,1,2.127-2.121A2.128,2.128,0,0,1,117.014,251.763Zm-11.265-.008a2.124,2.124,0,1,1,2.127-2.121A2.128,2.128,0,0,1,105.749,251.755Zm16.9-2.646a1.786,1.786,0,1,1,1.786-1.786A1.792,1.792,0,0,1,122.651,249.109Zm-22.532-.019a1.784,1.784,0,1,1,1.786-1.782A1.775,1.775,0,0,1,100.119,249.09Zm28.165-2.639a1.447,1.447,0,1,1,1.448-1.445A1.434,1.434,0,0,1,128.284,246.452Zm-33.8-.024a1.446,1.446,0,1,1,1.447-1.445A1.449,1.449,0,0,1,94.487,246.427ZM133.92,243.8a1.106,1.106,0,0,1-1.105-1.106,1.111,1.111,0,0,1,1.107-1.107,1.107,1.107,0,0,1,0,2.213Zm-45.063-.033a1.106,1.106,0,1,1,1.106-1.105A1.107,1.107,0,0,1,88.857,243.762Zm22.539-9.753h0l-3.914-2.158L111.4,229.7l3.916,2.158-3.917,2.153Zm8.9-1.031h0l-2.5-1.12,2.5-1.115,14.738,1.128-14.74,1.108h0Zm-17.8-.014h0L87.76,231.835l14.741-1.107,2.5,1.12-2.5,1.116ZM72.482,221.087a3.441,3.441,0,0,1-1.463-.26c-.161-.07-.19-.121-.19-.341l.009-.5c.011-.31.027-.6.035-.734v-.011l0-.072c.012-.177.05-.26.121-.26s.094.069.1.122l0,.048a2.062,2.062,0,0,0,.091.512,1.389,1.389,0,0,0,1.433,1.012,1.223,1.223,0,0,0,1.344-1.143c0-.5-.167-.965-.983-1.6l-.461-.361a2.979,2.979,0,0,1-1.484-2.375c0-1.115.952-1.895,2.316-1.895a4.914,4.914,0,0,1,1.24.146l.093.024c.1.023.14.057.14.121l-.025.457v.032c0,.09-.008.213-.011.363l0,.352c0,.219-.03.3-.111.3-.055,0-.086-.038-.1-.116l0-.065a1.21,1.21,0,0,0-.26-.661l-.1-.113a1.3,1.3,0,0,0-1-.379,1.061,1.061,0,0,0-1.192,1.033c0,.451.225.782.893,1.311l.45.342c1.2.9,1.644,1.594,1.644,2.556a2.03,2.03,0,0,1-.942,1.744A2.88,2.88,0,0,1,72.482,221.087Zm77.494-.02a.474.474,0,0,1-.274-.155l-.518-.5-2.834-2.836c-.733-.741-1.422-1.481-1.876-1.973l-.029-.031-.154-.165h-.029l.109,4.18c.018.7.123,1.033.351,1.112a1.333,1.333,0,0,0,.4.068l.125,0c.119,0,.17.024.17.08,0,.072-.067.1-.23.1l-.4,0c-.2,0-.364-.01-.5-.015l-.05,0h-.005l-.078,0c-.085,0-.158-.006-.213-.006l-.746.027-.337,0c-.121,0-.22-.008-.22-.1,0-.044.034-.069.105-.077l.056,0a1.827,1.827,0,0,0,.451-.049c.257-.079.3-.365.311-1.244l.09-5.9c0-.233.041-.341.13-.341.071,0,.133.053.223.15l.546.581c.2.214.94.983,1.835,1.89l1.123,1.13c.357.365.811.841,1.175,1.223l0,0,.084.088,0,0,.094.1,0,0c.294.308.526.551.59.611h.05l-.1-4.5c-.01-.587-.089-.8-.34-.9a1.655,1.655,0,0,0-.532-.059c-.114,0-.16-.026-.16-.091s.091-.085.189-.088l.451,0c.186,0,.362.011.509.016l.093,0,.14,0h.091c.034,0,.1,0,.185-.007.174-.008.462-.022.8-.022.121,0,.23.007.23.09,0,.049-.037.077-.115.087l-.065,0a1.1,1.1,0,0,0-.3.03c-.274.078-.361.277-.371.851l-.11,6.325C150.107,220.974,150.068,221.067,149.977,221.067Zm-28.228-.09-.765-.007c-.2,0-.377-.008-.541-.012l-.08,0-.27-.007h-.009l-.068,0-.467-.02-.082,0-.311-.008h-.481l-.965.029c-.135,0-.2-.033-.2-.1,0-.043.031-.067.1-.076l.063,0a1.607,1.607,0,0,0,.36-.04c.2-.04.253-.273.291-.552.042-.349.049-.975.05-1.6l0-3.909c0-.188-.005-.321-.012-.445l0-.071c-.019-.322-.091-.5-.431-.571a2.077,2.077,0,0,0-.392-.031c-.1,0-.169-.015-.169-.09s.084-.09.22-.09l.813.01.536.019,2.6-.009.3-.036a1.257,1.257,0,0,0,.131-.023l.108-.032a.2.2,0,0,1,.052-.009c.053,0,.06.046.06.091a.534.534,0,0,1-.014.094c-.012.061-.028.151-.044.3l-.035.449,0,.071v.025c-.009.146-.02.311-.032.377s-.03.11-.1.11c-.053,0-.079-.027-.088-.091l-.009-.172a.912.912,0,0,0-.053-.238c-.067-.172-.154-.3-.671-.361l-.194-.012c-.349-.015-1.057-.029-1.229-.029-.049,0-.07.03-.07.1v2.536c0,.072.011.111.07.111l1.3-.009c.158,0,.255-.007.3-.012.243-.02.392-.05.481-.15l.013-.014c.063-.072.1-.115.148-.115s.07.026.07.079l-.054.441c-.008.081-.017.177-.026.291l-.04.671c0,.08,0,.191-.091.191-.048,0-.076-.018-.086-.055l-.023-.266a1.077,1.077,0,0,0-.022-.13c-.058-.231-.236-.355-.561-.391-.192-.021-1.2-.031-1.424-.031-.05,0-.06.04-.06.1l0,2.072c0,.1,0,.192,0,.274.02.672.164.841,1.2.841l.3,0a1.763,1.763,0,0,0,.64-.115.759.759,0,0,0,.422-.6l.029-.145c.019-.107.038-.151.11-.151s.077.047.08.123v.058a7.846,7.846,0,0,1-.131,1.112C122.221,220.977,122.13,220.977,121.749,220.977Zm-38.491,0c-.539,0-.947-.01-1.386-.023h-.015l-.293-.008-.626-.022-.3-.005h-.6l-.274.008c-.123,0-.254.006-.369.011h-.022c-.109,0-.21.008-.3.008-.134,0-.2-.033-.2-.1,0-.043.031-.067.1-.076l.062,0a1.611,1.611,0,0,0,.361-.04c.2-.04.252-.273.291-.552.03-.258.045-.661.049-1.346l0-4.186c0-.23-.008-.358-.016-.491-.02-.329-.089-.5-.431-.571a1.273,1.273,0,0,0-.205-.027l-.126,0c-.121,0-.171-.026-.171-.09s.085-.09.221-.09c.238,0,.508.008.77.016l.08,0,.081,0,.325.008.341,0,.3-.008.085,0c.272-.008.553-.016.753-.016.126,0,.211.015.211.09,0,.054-.034.08-.115.087l-.065,0a2.752,2.752,0,0,0-.392.031c-.23.043-.328.168-.362.461l-.009.11c-.013.209-.017.4-.019.923v3.448c0,1.036.034,1.523.209,1.673s.405.221,1.213.221l.334,0a1.121,1.121,0,0,0,.839-.277,1.237,1.237,0,0,0,.243-.5l.018-.1c.01-.093.032-.151.11-.151s.08.055.08.171l-.007.135a7.553,7.553,0,0,1-.142,1.018c-.054.193-.093.26-.5.27Zm55.852-.03-.433,0c-.219,0-.426-.009-.608-.014h-.058c-.217-.007-.363-.011-.464-.011l-1.1.029h-.019l-.141,0c-.135,0-.2-.033-.2-.1,0-.043.031-.068.1-.076l.063,0a1.633,1.633,0,0,0,.362-.04c.159-.031.239-.147.277-.4l.013-.1c.039-.323.047-.87.049-1.363l0-4.279c0-.145-.006-.256-.012-.369l0-.063c-.021-.342-.123-.51-.341-.561a1.222,1.222,0,0,0-.238-.037l-.123,0c-.1,0-.16-.017-.16-.1,0-.056.07-.079.24-.079l.581.012.188.006h.018l.138,0,.234.006.143,0c.11,0,.3-.006.492-.013l.063,0c.222-.007.474-.016.668-.016.144,0,.211.025.211.079s-.032.091-.105.1l-.056,0a1.648,1.648,0,0,0-.3.031c-.231.042-.328.167-.361.461l-.02.326c-.006.164-.008.37-.009.712V218.6c0,.766.009,1.306.04,1.634.03.282.106.453.4.491a4.236,4.236,0,0,0,.511.04c.105,0,.161.028.161.08S139.232,220.947,139.11,220.947Zm-5.362,0H132.8a2.052,2.052,0,0,1-1.073-.191,4.143,4.143,0,0,1-1.21-1.251l-.367-.506c-.094-.132-.188-.265-.276-.391l-.019-.027c-.225-.321-.417-.593-.493-.681a.211.211,0,0,0-.181-.071l-.872-.02c-.055,0-.079.025-.079.081l0,1.176c.005.533.02.885.047,1.108.027.268.077.511.391.552a4.571,4.571,0,0,0,.491.04c.078,0,.121.028.121.08,0,.068-.066.1-.2.1l-.552-.007-.922-.023-.929.026c-.1,0-.193,0-.294,0-.134,0-.2-.033-.2-.1,0-.043.031-.068.1-.076l.063,0a1.611,1.611,0,0,0,.361-.04c.2-.039.249-.263.291-.552.029-.253.044-.668.048-1.346l0-4.245c0-.178-.008-.293-.015-.432-.02-.328-.089-.5-.431-.571a2.115,2.115,0,0,0-.391-.031c-.121,0-.171-.026-.171-.09s.085-.09.221-.09l.545.008.147,0,.279.008h.048c.156,0,.279.008.354.008l.375-.006h.059l.289-.008c.264-.008.534-.015.691-.015a3.216,3.216,0,0,1,1.844.431,1.731,1.731,0,0,1,.681,1.372,2.838,2.838,0,0,1-1.323,2.245l.98,1.234c.393.49.81,1,1.194,1.4a2,2,0,0,0,1.113.68l.01,0a1.463,1.463,0,0,0,.281.031c.077,0,.12.028.12.08C133.938,220.93,133.862,220.947,133.748,220.947Zm-4.9-7.106a2.178,2.178,0,0,0-.531.04c-.066.019-.09.055-.09.14v3.047c0,.109.02.15.09.18a2.61,2.61,0,0,0,.761.1,1,1,0,0,0,.713-.171,1.739,1.739,0,0,0,.591-1.5A1.6,1.6,0,0,0,128.846,213.841Zm-28.5,7.106-.433,0c-.228,0-.441-.009-.628-.014h-.034l-.134,0h-.006c-.142,0-.254-.007-.338-.007l-1.1.029h-.019l-.141,0c-.134,0-.2-.033-.2-.1,0-.043.031-.067.1-.076l.063,0a1.632,1.632,0,0,0,.362-.04c.208-.041.263-.29.291-.552s.044-.663.048-1.346l0-4.9-1.493.04c-.559.02-.818.065-.972.291a1.421,1.421,0,0,0-.15.284l-.021.067c-.022.086-.053.12-.111.12-.075,0-.089-.059-.089-.16,0-.161.187-1.063.21-1.153.028-.12.057-.19.121-.19a.287.287,0,0,1,.1.033.918.918,0,0,0,.326.087c.294.032.678.051,1,.051h3.969a4.689,4.689,0,0,0,.691-.051l.246-.048.025,0c.068,0,.08.055.08.211l-.029,1.047v.027c0,.017,0,.032,0,.047v.005h0c0,.013,0,.025,0,.037-.01.1-.029.16-.09.16s-.089-.031-.1-.122l-.018-.188c-.015-.2-.189-.539-1.183-.562l-1.263-.03,0,5.138c0,.437.014.748.033.977l.013.139c.029.262.08.5.391.541a4.237,4.237,0,0,0,.511.04c.105,0,.161.028.161.08S100.47,220.947,100.349,220.947Zm-9.333,0-.417,0c-.221,0-.428-.009-.61-.014h-.036l-.095,0c-.153,0-.286-.008-.377-.008l-1.107.029H88.23c-.132,0-.22-.017-.22-.1,0-.042.034-.067.1-.076l.059,0a1.59,1.59,0,0,0,.352-.04c.181-.035.288-.226.311-.552.017-.244.027-.533.029-.836v-.987a2.137,2.137,0,0,0-.23-1.051l-.054-.1c-.255-.45-1.287-2.141-1.655-2.7l-.057-.085a2.473,2.473,0,0,0-.691-.732,1.242,1.242,0,0,0-.323-.12l-.1-.011c-.1,0-.15-.03-.15-.09s.068-.09.191-.09l.991.027h.034l.238,0,.226-.006.11,0,.073,0c.188-.008.423-.017.664-.017.1,0,.15.03.15.09s-.057.068-.169.1l-.051.014a.182.182,0,0,0-.14.18.627.627,0,0,0,.072.239l.049.1c.114.244,1.048,1.862,1.5,2.639l.035.061.007.013.132.228.032.056.074-.148c.119-.228.357-.654.608-1.105l.071-.127.013-.022.04-.072c.311-.56.633-1.139.7-1.284a1.331,1.331,0,0,0,.14-.521.241.241,0,0,0-.211-.251l-.1-.026c-.053-.019-.078-.042-.078-.074,0-.066.045-.09.17-.09.173,0,.348.009.5.016s.294.014.44.014l.234,0,.318-.011.155-.005c.158-.005.294-.01.366-.01.123,0,.18.025.18.079s-.044.086-.128.1l-.062,0a1.084,1.084,0,0,0-.441.121,1.5,1.5,0,0,0-.542.491,32.529,32.529,0,0,0-1.914,3.187,2.1,2.1,0,0,0-.149.838v1.152l.01.465c.006.156.012.27.021.371.023.347.15.517.41.552a4.177,4.177,0,0,0,.5.04c.105,0,.161.028.161.08S91.154,220.947,91.016,220.947Zm22.644,0-.428,0c-.222,0-.432-.009-.617-.014l-.081,0h-.008l-.1,0-.227-.006H112.1c-.083,0-.216,0-.37.009l-.106,0c-.245.008-.55.017-.778.017-.143,0-.21-.032-.21-.1,0-.043.031-.068.1-.077l.063,0a1.645,1.645,0,0,0,.361-.04c.2-.04.252-.273.291-.551.037-.311.045-.831.049-1.347v-1.67a.057.057,0,0,0-.059-.059h-3.829a.052.052,0,0,0-.059.059v1.418c0,.724.011,1.275.049,1.609.029.262.08.5.391.541.1.015.235.028.344.034l.167.005c.1,0,.161.029.161.081s-.069.1-.2.1l-.427,0c-.222,0-.433-.009-.618-.014H107.4l-.071,0-.1,0-.228-.006h-.105c-.108,0-.3.006-.472.013-.234.007-.554.017-.79.017-.135,0-.2-.033-.2-.1,0-.044.029-.067.1-.077l.063,0a1.645,1.645,0,0,0,.361-.04c.2-.04.252-.273.29-.551.039-.326.049-.875.05-1.6l0-4.033c0-.109-.006-.2-.011-.322l0-.069c-.019-.33-.088-.5-.431-.572a2.115,2.115,0,0,0-.391-.031c-.121,0-.17-.026-.17-.09s.081-.09.211-.09l.416,0,.4.011.143,0h.006l.095,0h.006l.259.006h.118c.105,0,.281-.005.485-.012l.07,0c.237-.007.506-.016.708-.016.126,0,.211.015.211.09,0,.053-.036.08-.116.087l-.065,0a1.847,1.847,0,0,0-.291.031c-.23.042-.328.167-.362.461l-.017.255c-.006.144-.009.308-.011.651v1.54c0,.052.031.07.059.07h3.829c.029,0,.059-.018.059-.07l0-1.9c0-.175-.007-.3-.015-.431-.019-.33-.088-.5-.43-.572a2.134,2.134,0,0,0-.392-.031c-.121,0-.17-.026-.17-.09s.08-.09.21-.09l.416,0,.552.015.1,0,.263.006h.117c.107,0,.284-.005.488-.012l.073,0c.235-.007.5-.016.7-.016.126,0,.211.015.211.09,0,.054-.035.08-.116.087l-.065,0a1.878,1.878,0,0,0-.291.031c-.23.042-.328.167-.362.461l-.02.326c-.005.141-.007.314-.008.711l0,3.992c.006.458.016.759.033.977l.014.139c.028.262.079.5.39.541.1.015.235.028.344.034l.168.005c.1,0,.159.028.159.081S113.791,220.946,113.66,220.946ZM140.774,38.09a1.668,1.668,0,1,1,1.671-1.666A1.67,1.67,0,0,1,140.774,38.09Zm-58.621-.042a1.669,1.669,0,1,1,1.671-1.669A1.669,1.669,0,0,1,82.153,38.048Z" transform="translate(1255.5 339)" fill="#fff"/>
      <path id="Exclusion_1" data-name="Exclusion 1" d="M99.363,132.8a1.841,1.841,0,0,1-1.41-.482,1.75,1.75,0,0,1-.345-1.383c19.805-18.141,33.71-34.959,41.33-49.989a64.547,64.547,0,0,0,6.2-17.627,37.376,37.376,0,0,0,.157-13.142l.147.057-.009-.112a18.236,18.236,0,0,0-1.172-4.643,29.933,29.933,0,0,0-5.558-9.068A45.639,45.639,0,0,0,125.35,26.241a87.166,87.166,0,0,0-24.541-7.959A70.109,70.109,0,0,1,114.027,23.6a38.2,38.2,0,0,1,9.443,6.831,16.661,16.661,0,0,1,5.008,9.775c-5.152-.016-11.876-2.214-16.609-4.055-4.9-1.905-8.706-3.817-9.124-4.028l-.007,0-.37-.229a29.6,29.6,0,0,0-8.429-3.509,30.524,30.524,0,0,0-7.224-.863,26.108,26.108,0,0,0-6.327.711c-.008,0-.012,0-.013.005l.515.01a32.593,32.593,0,0,1,14.888,4,29.249,29.249,0,0,1,6.672,4.9l.281.3a38.689,38.689,0,0,1-6.206,16.672,47.95,47.95,0,0,1-10.7,11.32,62.511,62.511,0,0,1-16.883,9.257l-.318.105c-10.462,7.05-29.062,9.612-34.513,10.229l-1.376.145c.434-1.1.928-2.184,1.468-3.235.6-.123,1.258-.27,2.067-.461a38.561,38.561,0,0,0,11.455-3.546l.343-.175c-.987-2.582,2.011-8.09,2.954-9.716l.266-.447a19.16,19.16,0,0,0-.126,7.783l.083.412c3.605-.609,10.382-3,14.1-4.378l2.3-.865a20.814,20.814,0,0,1-2.282-7.718,12,12,0,0,1,.763-5.283,9.292,9.292,0,0,1,2.93-4.005l-.117.379c-1.192,3.939-1.055,6.964.409,8.992,1.729,2.4,4.831,2.662,5.74,2.687h.268l.548-.049c15.274-1.594,19.482-18.907,20.171-22.361l.112-.607C88.323,36.228,80.353,33,72.5,33a29.348,29.348,0,0,0-10.34,1.91,36.323,36.323,0,0,0-9.137,5.121A54.739,54.739,0,0,0,39.106,56.268l-.339.581a47.364,47.364,0,0,1-7.2,9.542,15.082,15.082,0,0,0-5.6-4.465,13.514,13.514,0,0,0-5.545-1.154,15.935,15.935,0,0,0-2.589.217l-.433.077a45.357,45.357,0,0,1,9.326-22.474A40.732,40.732,0,0,1,35.6,30.059l.214-.14c-5.967,2.806-11.35,8.2-16,16.04l-7.674,3.179.287-.707a43.225,43.225,0,0,1,2.5-11.847,21.119,21.119,0,0,1,4.07-6.8,13.573,13.573,0,0,1,4.261-3.149,10.513,10.513,0,0,1,3.07-.9l.23-.025a55.557,55.557,0,0,0-7.769,14.11l-.184.55c9.791-11.329,20.66-19.888,32.3-25.442A74.827,74.827,0,0,1,99.472,9.081a77.544,77.544,0,0,1,14.584,4.7A75.251,75.251,0,0,1,137.71,29.934,57.044,57.044,0,0,1,148.8,45.663a37.623,37.623,0,0,1,3.773,16.755,42.7,42.7,0,0,1-4.268,16.461,97.985,97.985,0,0,1-10.588,17.387c-7.631,10.268-18.156,21.523-31.283,33.454l-1.369,1.238C101.825,132.564,100.1,132.8,99.363,132.8Zm-5.239-7.995a16.209,16.209,0,0,1-7.789-1.877,24.165,24.165,0,0,1-3.8-2.9,17.217,17.217,0,0,1-2.576-3.456,55.81,55.81,0,0,0,8.65-12.883,71.943,71.943,0,0,0,8.685,3.572,36.422,36.422,0,0,0,11.188,2.126h.006c.166,0,.335,0,.488-.005A187.626,187.626,0,0,1,97.725,124.5,22.142,22.142,0,0,1,94.124,124.808Zm10.16-19.187a29.72,29.72,0,0,1-14.837-3.754,86.019,86.019,0,0,0,3.977-11.619,41.563,41.563,0,0,0,16.039,3.525,27.723,27.723,0,0,0,9.053-1.448,108.531,108.531,0,0,1-6.609,12.465A35.8,35.8,0,0,1,104.284,105.621Zm-75.6-8.733a51.054,51.054,0,0,1-2.03-4.8,26.915,26.915,0,0,1-1.9-8.932,52.232,52.232,0,0,0,6.223-.623,50.754,50.754,0,0,0-1.845,6.527,21.973,21.973,0,0,0-.448,7.83Zm77.43-7.171A27.161,27.161,0,0,1,94.25,87.125c.634-2.484,1.291-5.264,2.007-8.5a75.84,75.84,0,0,0,7.874.415,57.423,57.423,0,0,0,9.9-.795,29.9,29.9,0,0,0,9.606-3.232,56.84,56.84,0,0,1-2.873,11.672A39.566,39.566,0,0,1,106.118,89.717ZM39.112,87.746v0c7.256-1.559,16.667-4.191,23.285-6.125C55.778,83.557,46.365,86.19,39.112,87.746Zm-21.957-.135a20.818,20.818,0,0,1-4.207-1.651,20.721,20.721,0,0,0,4.207,1.649Zm-6.844-1.781c-.1-.168-2.473-4.166-2.5-7.664l.413-.04a14.221,14.221,0,0,0,3.165,2.415,11.008,11.008,0,0,0-1.081,5.288Zm10.754-.09h0l-7.731-2.557.146-.285A6.674,6.674,0,0,1,14.2,81.82a24.771,24.771,0,0,0,6.377,1.27c.094.616.2,1.251.329,1.887l.155.762Zm3.279-6.367-.044,0h-.106a23.228,23.228,0,0,1-8.115-1.512,11.916,11.916,0,0,1-5.225-3.426c-2.165-2.962-4.1-3.4-5.054-3.4a2.375,2.375,0,0,0-.5.047l-.082.02a42.312,42.312,0,0,1,1.75-7.6,4.12,4.12,0,0,1,2.9,1.5,4.694,4.694,0,0,1,.7,3.414l-.042.235c2.36-3.068,5.082-4.623,8.09-4.623a11.472,11.472,0,0,1,5.567,1.614,20.847,20.847,0,0,1,4.072,3.037l.327.313c-4.047,3.016-7.3,3.466-8.877,3.466a6.6,6.6,0,0,1-.96-.064l-.184-.032a15.416,15.416,0,0,0,5.784,7.021ZM100.436,75.7a29.86,29.86,0,0,1-3.466-.2,80.673,80.673,0,0,1,3.552-11.013,61.822,61.822,0,0,1,4.631-9.286c3.513-5.679,7.127-8.806,10.175-8.807,2.183,0,4.011,1.575,5.432,4.68,1.575,3.439,2.62,8.709,3.1,15.665C119.675,70.085,111.061,75.7,100.436,75.7ZM12.651,61.937h0a5.126,5.126,0,0,0-3.831-1.492,8.066,8.066,0,0,0-.889.051c.747-2.241,1.63-4.7,2.621-7.295l.689-1.783,7.02-2.681a86.954,86.954,0,0,0-5.323,12.358l-.284.841Zm36.838-5.477c-.565,0-1.167-.029-1.788-.086a17.832,17.832,0,0,0,3.065-2.241,36.517,36.517,0,0,0,6.749-8.128s0,0,0,.011a12.212,12.212,0,0,1,.327,2.7A7.918,7.918,0,0,1,56.4,53.744C55.019,55.546,52.694,56.461,49.489,56.461ZM8.051,45.208h0a49.142,49.142,0,0,1,3.375-9.272A49.884,49.884,0,0,0,8.051,45.208Z" transform="translate(1288.019 404.285)" fill="#fff"/>
    </g>
  </g>
</svg>
